%TF.GenerationSoftware,KiCad,Pcbnew,8.0.3*%
%TF.CreationDate,2024-06-22T22:44:29-05:00*%
%TF.ProjectId,RS485_breakout,52533438-355f-4627-9265-616b6f75742e,rev?*%
%TF.SameCoordinates,Original*%
%TF.FileFunction,Soldermask,Top*%
%TF.FilePolarity,Negative*%
%FSLAX46Y46*%
G04 Gerber Fmt 4.6, Leading zero omitted, Abs format (unit mm)*
G04 Created by KiCad (PCBNEW 8.0.3) date 2024-06-22 22:44:29*
%MOMM*%
%LPD*%
G01*
G04 APERTURE LIST*
G04 Aperture macros list*
%AMRoundRect*
0 Rectangle with rounded corners*
0 $1 Rounding radius*
0 $2 $3 $4 $5 $6 $7 $8 $9 X,Y pos of 4 corners*
0 Add a 4 corners polygon primitive as box body*
4,1,4,$2,$3,$4,$5,$6,$7,$8,$9,$2,$3,0*
0 Add four circle primitives for the rounded corners*
1,1,$1+$1,$2,$3*
1,1,$1+$1,$4,$5*
1,1,$1+$1,$6,$7*
1,1,$1+$1,$8,$9*
0 Add four rect primitives between the rounded corners*
20,1,$1+$1,$2,$3,$4,$5,0*
20,1,$1+$1,$4,$5,$6,$7,0*
20,1,$1+$1,$6,$7,$8,$9,0*
20,1,$1+$1,$8,$9,$2,$3,0*%
G04 Aperture macros list end*
%ADD10R,1.700000X1.700000*%
%ADD11O,1.700000X1.700000*%
%ADD12RoundRect,0.250000X-0.262500X-0.450000X0.262500X-0.450000X0.262500X0.450000X-0.262500X0.450000X0*%
%ADD13RoundRect,0.150000X-0.825000X-0.150000X0.825000X-0.150000X0.825000X0.150000X-0.825000X0.150000X0*%
%ADD14RoundRect,0.150000X0.825000X0.150000X-0.825000X0.150000X-0.825000X-0.150000X0.825000X-0.150000X0*%
%ADD15RoundRect,0.250000X-0.475000X0.250000X-0.475000X-0.250000X0.475000X-0.250000X0.475000X0.250000X0*%
%ADD16RoundRect,0.250000X0.475000X-0.250000X0.475000X0.250000X-0.475000X0.250000X-0.475000X-0.250000X0*%
%ADD17C,5.700000*%
%ADD18RoundRect,0.250000X0.262500X0.450000X-0.262500X0.450000X-0.262500X-0.450000X0.262500X-0.450000X0*%
%ADD19C,3.200000*%
%ADD20R,1.500000X1.500000*%
%ADD21C,1.500000*%
G04 APERTURE END LIST*
D10*
%TO.C,J2*%
X132080000Y-71000000D03*
D11*
X134620000Y-71000000D03*
X137160000Y-71000000D03*
X139700000Y-71000000D03*
X142240000Y-71000000D03*
X144780000Y-71000000D03*
%TD*%
D12*
%TO.C,R1*%
X134287500Y-77400000D03*
X136112500Y-77400000D03*
%TD*%
D13*
%TO.C,U2*%
X140825000Y-78695000D03*
X140825000Y-79965000D03*
X140825000Y-81235000D03*
X140825000Y-82505000D03*
X145775000Y-82505000D03*
X145775000Y-81235000D03*
X145775000Y-79965000D03*
X145775000Y-78695000D03*
%TD*%
D14*
%TO.C,U1*%
X140775000Y-90605000D03*
X140775000Y-89335000D03*
X140775000Y-88065000D03*
X140775000Y-86795000D03*
X135825000Y-86795000D03*
X135825000Y-88065000D03*
X135825000Y-89335000D03*
X135825000Y-90605000D03*
%TD*%
D10*
%TO.C,J3*%
X129540000Y-99060000D03*
D11*
X132080000Y-99060000D03*
X134620000Y-99060000D03*
X137160000Y-99060000D03*
X139700000Y-99060000D03*
X142240000Y-99060000D03*
X144780000Y-99060000D03*
X147320000Y-99060000D03*
X149860000Y-99060000D03*
X152400000Y-99060000D03*
X154940000Y-99060000D03*
%TD*%
D15*
%TO.C,C2*%
X148900000Y-78650000D03*
X148900000Y-80550000D03*
%TD*%
D12*
%TO.C,R2*%
X134287500Y-79800000D03*
X136112500Y-79800000D03*
%TD*%
D16*
%TO.C,C1*%
X133050000Y-90650000D03*
X133050000Y-88750000D03*
%TD*%
D17*
%TO.C,H1*%
X115900000Y-72500000D03*
%TD*%
D18*
%TO.C,R5*%
X147650000Y-88150000D03*
X145825000Y-88150000D03*
%TD*%
%TO.C,R4*%
X147600000Y-90550000D03*
X145775000Y-90550000D03*
%TD*%
%TO.C,R6*%
X147650000Y-85750000D03*
X145825000Y-85750000D03*
%TD*%
D19*
%TO.C,J1*%
X161600000Y-90002500D03*
X161600000Y-78572500D03*
D20*
X155250000Y-88732500D03*
D21*
X152710000Y-87462500D03*
X155250000Y-86192500D03*
X152710000Y-84922500D03*
X155250000Y-83652500D03*
X152710000Y-82382500D03*
X155250000Y-81112500D03*
X152710000Y-79842500D03*
%TD*%
D17*
%TO.C,H4*%
X166000000Y-97500000D03*
%TD*%
%TO.C,H2*%
X166000000Y-72500000D03*
%TD*%
D12*
%TO.C,R3*%
X134237500Y-82300000D03*
X136062500Y-82300000D03*
%TD*%
D17*
%TO.C,H3*%
X116000000Y-97500000D03*
%TD*%
D19*
%TO.C,J0*%
X120250000Y-78897500D03*
X120250000Y-90327500D03*
D20*
X126600000Y-80167500D03*
D21*
X129140000Y-81437500D03*
X126600000Y-82707500D03*
X129140000Y-83977500D03*
X126600000Y-85247500D03*
X129140000Y-86517500D03*
X126600000Y-87787500D03*
X129140000Y-89057500D03*
%TD*%
M02*
