%TF.GenerationSoftware,KiCad,Pcbnew,8.0.3*%
%TF.CreationDate,2024-06-22T22:44:29-05:00*%
%TF.ProjectId,RS485_breakout,52533438-355f-4627-9265-616b6f75742e,rev?*%
%TF.SameCoordinates,Original*%
%TF.FileFunction,Legend,Top*%
%TF.FilePolarity,Positive*%
%FSLAX46Y46*%
G04 Gerber Fmt 4.6, Leading zero omitted, Abs format (unit mm)*
G04 Created by KiCad (PCBNEW 8.0.3) date 2024-06-22 22:44:29*
%MOMM*%
%LPD*%
G01*
G04 APERTURE LIST*
G04 Aperture macros list*
%AMRoundRect*
0 Rectangle with rounded corners*
0 $1 Rounding radius*
0 $2 $3 $4 $5 $6 $7 $8 $9 X,Y pos of 4 corners*
0 Add a 4 corners polygon primitive as box body*
4,1,4,$2,$3,$4,$5,$6,$7,$8,$9,$2,$3,0*
0 Add four circle primitives for the rounded corners*
1,1,$1+$1,$2,$3*
1,1,$1+$1,$4,$5*
1,1,$1+$1,$6,$7*
1,1,$1+$1,$8,$9*
0 Add four rect primitives between the rounded corners*
20,1,$1+$1,$2,$3,$4,$5,0*
20,1,$1+$1,$4,$5,$6,$7,0*
20,1,$1+$1,$6,$7,$8,$9,0*
20,1,$1+$1,$8,$9,$2,$3,0*%
G04 Aperture macros list end*
%ADD10C,0.150000*%
%ADD11C,0.120000*%
%ADD12R,1.700000X1.700000*%
%ADD13O,1.700000X1.700000*%
%ADD14RoundRect,0.250000X-0.262500X-0.450000X0.262500X-0.450000X0.262500X0.450000X-0.262500X0.450000X0*%
%ADD15RoundRect,0.150000X-0.825000X-0.150000X0.825000X-0.150000X0.825000X0.150000X-0.825000X0.150000X0*%
%ADD16RoundRect,0.150000X0.825000X0.150000X-0.825000X0.150000X-0.825000X-0.150000X0.825000X-0.150000X0*%
%ADD17RoundRect,0.250000X-0.475000X0.250000X-0.475000X-0.250000X0.475000X-0.250000X0.475000X0.250000X0*%
%ADD18RoundRect,0.250000X0.475000X-0.250000X0.475000X0.250000X-0.475000X0.250000X-0.475000X-0.250000X0*%
%ADD19C,5.700000*%
%ADD20RoundRect,0.250000X0.262500X0.450000X-0.262500X0.450000X-0.262500X-0.450000X0.262500X-0.450000X0*%
%ADD21C,3.200000*%
%ADD22R,1.500000X1.500000*%
%ADD23C,1.500000*%
G04 APERTURE END LIST*
D10*
X134346009Y-74129887D02*
X134393628Y-73987030D01*
X134393628Y-73987030D02*
X134441247Y-73939411D01*
X134441247Y-73939411D02*
X134536485Y-73891792D01*
X134536485Y-73891792D02*
X134679342Y-73891792D01*
X134679342Y-73891792D02*
X134774580Y-73939411D01*
X134774580Y-73939411D02*
X134822200Y-73987030D01*
X134822200Y-73987030D02*
X134869819Y-74082268D01*
X134869819Y-74082268D02*
X134869819Y-74463220D01*
X134869819Y-74463220D02*
X133869819Y-74463220D01*
X133869819Y-74463220D02*
X133869819Y-74129887D01*
X133869819Y-74129887D02*
X133917438Y-74034649D01*
X133917438Y-74034649D02*
X133965057Y-73987030D01*
X133965057Y-73987030D02*
X134060295Y-73939411D01*
X134060295Y-73939411D02*
X134155533Y-73939411D01*
X134155533Y-73939411D02*
X134250771Y-73987030D01*
X134250771Y-73987030D02*
X134298390Y-74034649D01*
X134298390Y-74034649D02*
X134346009Y-74129887D01*
X134346009Y-74129887D02*
X134346009Y-74463220D01*
X133869819Y-73272744D02*
X133869819Y-73177506D01*
X133869819Y-73177506D02*
X133917438Y-73082268D01*
X133917438Y-73082268D02*
X133965057Y-73034649D01*
X133965057Y-73034649D02*
X134060295Y-72987030D01*
X134060295Y-72987030D02*
X134250771Y-72939411D01*
X134250771Y-72939411D02*
X134488866Y-72939411D01*
X134488866Y-72939411D02*
X134679342Y-72987030D01*
X134679342Y-72987030D02*
X134774580Y-73034649D01*
X134774580Y-73034649D02*
X134822200Y-73082268D01*
X134822200Y-73082268D02*
X134869819Y-73177506D01*
X134869819Y-73177506D02*
X134869819Y-73272744D01*
X134869819Y-73272744D02*
X134822200Y-73367982D01*
X134822200Y-73367982D02*
X134774580Y-73415601D01*
X134774580Y-73415601D02*
X134679342Y-73463220D01*
X134679342Y-73463220D02*
X134488866Y-73510839D01*
X134488866Y-73510839D02*
X134250771Y-73510839D01*
X134250771Y-73510839D02*
X134060295Y-73463220D01*
X134060295Y-73463220D02*
X133965057Y-73415601D01*
X133965057Y-73415601D02*
X133917438Y-73367982D01*
X133917438Y-73367982D02*
X133869819Y-73272744D01*
X133869819Y-96958458D02*
X133869819Y-96339411D01*
X133869819Y-96339411D02*
X134250771Y-96672744D01*
X134250771Y-96672744D02*
X134250771Y-96529887D01*
X134250771Y-96529887D02*
X134298390Y-96434649D01*
X134298390Y-96434649D02*
X134346009Y-96387030D01*
X134346009Y-96387030D02*
X134441247Y-96339411D01*
X134441247Y-96339411D02*
X134679342Y-96339411D01*
X134679342Y-96339411D02*
X134774580Y-96387030D01*
X134774580Y-96387030D02*
X134822200Y-96434649D01*
X134822200Y-96434649D02*
X134869819Y-96529887D01*
X134869819Y-96529887D02*
X134869819Y-96815601D01*
X134869819Y-96815601D02*
X134822200Y-96910839D01*
X134822200Y-96910839D02*
X134774580Y-96958458D01*
X133869819Y-96053696D02*
X134869819Y-95720363D01*
X134869819Y-95720363D02*
X133869819Y-95387030D01*
X133869819Y-95148934D02*
X133869819Y-94529887D01*
X133869819Y-94529887D02*
X134250771Y-94863220D01*
X134250771Y-94863220D02*
X134250771Y-94720363D01*
X134250771Y-94720363D02*
X134298390Y-94625125D01*
X134298390Y-94625125D02*
X134346009Y-94577506D01*
X134346009Y-94577506D02*
X134441247Y-94529887D01*
X134441247Y-94529887D02*
X134679342Y-94529887D01*
X134679342Y-94529887D02*
X134774580Y-94577506D01*
X134774580Y-94577506D02*
X134822200Y-94625125D01*
X134822200Y-94625125D02*
X134869819Y-94720363D01*
X134869819Y-94720363D02*
X134869819Y-95006077D01*
X134869819Y-95006077D02*
X134822200Y-95101315D01*
X134822200Y-95101315D02*
X134774580Y-95148934D01*
X136717438Y-75139411D02*
X136669819Y-75234649D01*
X136669819Y-75234649D02*
X136669819Y-75377506D01*
X136669819Y-75377506D02*
X136717438Y-75520363D01*
X136717438Y-75520363D02*
X136812676Y-75615601D01*
X136812676Y-75615601D02*
X136907914Y-75663220D01*
X136907914Y-75663220D02*
X137098390Y-75710839D01*
X137098390Y-75710839D02*
X137241247Y-75710839D01*
X137241247Y-75710839D02*
X137431723Y-75663220D01*
X137431723Y-75663220D02*
X137526961Y-75615601D01*
X137526961Y-75615601D02*
X137622200Y-75520363D01*
X137622200Y-75520363D02*
X137669819Y-75377506D01*
X137669819Y-75377506D02*
X137669819Y-75282268D01*
X137669819Y-75282268D02*
X137622200Y-75139411D01*
X137622200Y-75139411D02*
X137574580Y-75091792D01*
X137574580Y-75091792D02*
X137241247Y-75091792D01*
X137241247Y-75091792D02*
X137241247Y-75282268D01*
X137669819Y-74663220D02*
X136669819Y-74663220D01*
X136669819Y-74663220D02*
X137669819Y-74091792D01*
X137669819Y-74091792D02*
X136669819Y-74091792D01*
X137669819Y-73615601D02*
X136669819Y-73615601D01*
X136669819Y-73615601D02*
X136669819Y-73377506D01*
X136669819Y-73377506D02*
X136717438Y-73234649D01*
X136717438Y-73234649D02*
X136812676Y-73139411D01*
X136812676Y-73139411D02*
X136907914Y-73091792D01*
X136907914Y-73091792D02*
X137098390Y-73044173D01*
X137098390Y-73044173D02*
X137241247Y-73044173D01*
X137241247Y-73044173D02*
X137431723Y-73091792D01*
X137431723Y-73091792D02*
X137526961Y-73139411D01*
X137526961Y-73139411D02*
X137622200Y-73234649D01*
X137622200Y-73234649D02*
X137669819Y-73377506D01*
X137669819Y-73377506D02*
X137669819Y-73615601D01*
X137469819Y-96291792D02*
X136993628Y-96625125D01*
X137469819Y-96863220D02*
X136469819Y-96863220D01*
X136469819Y-96863220D02*
X136469819Y-96482268D01*
X136469819Y-96482268D02*
X136517438Y-96387030D01*
X136517438Y-96387030D02*
X136565057Y-96339411D01*
X136565057Y-96339411D02*
X136660295Y-96291792D01*
X136660295Y-96291792D02*
X136803152Y-96291792D01*
X136803152Y-96291792D02*
X136898390Y-96339411D01*
X136898390Y-96339411D02*
X136946009Y-96387030D01*
X136946009Y-96387030D02*
X136993628Y-96482268D01*
X136993628Y-96482268D02*
X136993628Y-96863220D01*
X136469819Y-95958458D02*
X137469819Y-95291792D01*
X136469819Y-95291792D02*
X137469819Y-95958458D01*
X136469819Y-94720363D02*
X136469819Y-94625125D01*
X136469819Y-94625125D02*
X136517438Y-94529887D01*
X136517438Y-94529887D02*
X136565057Y-94482268D01*
X136565057Y-94482268D02*
X136660295Y-94434649D01*
X136660295Y-94434649D02*
X136850771Y-94387030D01*
X136850771Y-94387030D02*
X137088866Y-94387030D01*
X137088866Y-94387030D02*
X137279342Y-94434649D01*
X137279342Y-94434649D02*
X137374580Y-94482268D01*
X137374580Y-94482268D02*
X137422200Y-94529887D01*
X137422200Y-94529887D02*
X137469819Y-94625125D01*
X137469819Y-94625125D02*
X137469819Y-94720363D01*
X137469819Y-94720363D02*
X137422200Y-94815601D01*
X137422200Y-94815601D02*
X137374580Y-94863220D01*
X137374580Y-94863220D02*
X137279342Y-94910839D01*
X137279342Y-94910839D02*
X137088866Y-94958458D01*
X137088866Y-94958458D02*
X136850771Y-94958458D01*
X136850771Y-94958458D02*
X136660295Y-94910839D01*
X136660295Y-94910839D02*
X136565057Y-94863220D01*
X136565057Y-94863220D02*
X136517438Y-94815601D01*
X136517438Y-94815601D02*
X136469819Y-94720363D01*
X142346009Y-74129887D02*
X142393628Y-73987030D01*
X142393628Y-73987030D02*
X142441247Y-73939411D01*
X142441247Y-73939411D02*
X142536485Y-73891792D01*
X142536485Y-73891792D02*
X142679342Y-73891792D01*
X142679342Y-73891792D02*
X142774580Y-73939411D01*
X142774580Y-73939411D02*
X142822200Y-73987030D01*
X142822200Y-73987030D02*
X142869819Y-74082268D01*
X142869819Y-74082268D02*
X142869819Y-74463220D01*
X142869819Y-74463220D02*
X141869819Y-74463220D01*
X141869819Y-74463220D02*
X141869819Y-74129887D01*
X141869819Y-74129887D02*
X141917438Y-74034649D01*
X141917438Y-74034649D02*
X141965057Y-73987030D01*
X141965057Y-73987030D02*
X142060295Y-73939411D01*
X142060295Y-73939411D02*
X142155533Y-73939411D01*
X142155533Y-73939411D02*
X142250771Y-73987030D01*
X142250771Y-73987030D02*
X142298390Y-74034649D01*
X142298390Y-74034649D02*
X142346009Y-74129887D01*
X142346009Y-74129887D02*
X142346009Y-74463220D01*
X142869819Y-72939411D02*
X142869819Y-73510839D01*
X142869819Y-73225125D02*
X141869819Y-73225125D01*
X141869819Y-73225125D02*
X142012676Y-73320363D01*
X142012676Y-73320363D02*
X142107914Y-73415601D01*
X142107914Y-73415601D02*
X142155533Y-73510839D01*
X131984104Y-74510839D02*
X131984104Y-74034649D01*
X132269819Y-74606077D02*
X131269819Y-74272744D01*
X131269819Y-74272744D02*
X132269819Y-73939411D01*
X131269819Y-73415601D02*
X131269819Y-73320363D01*
X131269819Y-73320363D02*
X131317438Y-73225125D01*
X131317438Y-73225125D02*
X131365057Y-73177506D01*
X131365057Y-73177506D02*
X131460295Y-73129887D01*
X131460295Y-73129887D02*
X131650771Y-73082268D01*
X131650771Y-73082268D02*
X131888866Y-73082268D01*
X131888866Y-73082268D02*
X132079342Y-73129887D01*
X132079342Y-73129887D02*
X132174580Y-73177506D01*
X132174580Y-73177506D02*
X132222200Y-73225125D01*
X132222200Y-73225125D02*
X132269819Y-73320363D01*
X132269819Y-73320363D02*
X132269819Y-73415601D01*
X132269819Y-73415601D02*
X132222200Y-73510839D01*
X132222200Y-73510839D02*
X132174580Y-73558458D01*
X132174580Y-73558458D02*
X132079342Y-73606077D01*
X132079342Y-73606077D02*
X131888866Y-73653696D01*
X131888866Y-73653696D02*
X131650771Y-73653696D01*
X131650771Y-73653696D02*
X131460295Y-73606077D01*
X131460295Y-73606077D02*
X131365057Y-73558458D01*
X131365057Y-73558458D02*
X131317438Y-73510839D01*
X131317438Y-73510839D02*
X131269819Y-73415601D01*
X139784104Y-74510839D02*
X139784104Y-74034649D01*
X140069819Y-74606077D02*
X139069819Y-74272744D01*
X139069819Y-74272744D02*
X140069819Y-73939411D01*
X140069819Y-73082268D02*
X140069819Y-73653696D01*
X140069819Y-73367982D02*
X139069819Y-73367982D01*
X139069819Y-73367982D02*
X139212676Y-73463220D01*
X139212676Y-73463220D02*
X139307914Y-73558458D01*
X139307914Y-73558458D02*
X139355533Y-73653696D01*
X131746009Y-96529887D02*
X131793628Y-96387030D01*
X131793628Y-96387030D02*
X131841247Y-96339411D01*
X131841247Y-96339411D02*
X131936485Y-96291792D01*
X131936485Y-96291792D02*
X132079342Y-96291792D01*
X132079342Y-96291792D02*
X132174580Y-96339411D01*
X132174580Y-96339411D02*
X132222200Y-96387030D01*
X132222200Y-96387030D02*
X132269819Y-96482268D01*
X132269819Y-96482268D02*
X132269819Y-96863220D01*
X132269819Y-96863220D02*
X131269819Y-96863220D01*
X131269819Y-96863220D02*
X131269819Y-96529887D01*
X131269819Y-96529887D02*
X131317438Y-96434649D01*
X131317438Y-96434649D02*
X131365057Y-96387030D01*
X131365057Y-96387030D02*
X131460295Y-96339411D01*
X131460295Y-96339411D02*
X131555533Y-96339411D01*
X131555533Y-96339411D02*
X131650771Y-96387030D01*
X131650771Y-96387030D02*
X131698390Y-96434649D01*
X131698390Y-96434649D02*
X131746009Y-96529887D01*
X131746009Y-96529887D02*
X131746009Y-96863220D01*
X131984104Y-95910839D02*
X131984104Y-95434649D01*
X132269819Y-96006077D02*
X131269819Y-95672744D01*
X131269819Y-95672744D02*
X132269819Y-95339411D01*
X131269819Y-95148934D02*
X131269819Y-94577506D01*
X132269819Y-94863220D02*
X131269819Y-94863220D01*
X131365057Y-94291791D02*
X131317438Y-94244172D01*
X131317438Y-94244172D02*
X131269819Y-94148934D01*
X131269819Y-94148934D02*
X131269819Y-93910839D01*
X131269819Y-93910839D02*
X131317438Y-93815601D01*
X131317438Y-93815601D02*
X131365057Y-93767982D01*
X131365057Y-93767982D02*
X131460295Y-93720363D01*
X131460295Y-93720363D02*
X131555533Y-93720363D01*
X131555533Y-93720363D02*
X131698390Y-93767982D01*
X131698390Y-93767982D02*
X132269819Y-94339410D01*
X132269819Y-94339410D02*
X132269819Y-93720363D01*
X149269819Y-96806077D02*
X149269819Y-96234649D01*
X150269819Y-96520363D02*
X149269819Y-96520363D01*
X149269819Y-95996553D02*
X150269819Y-95329887D01*
X149269819Y-95329887D02*
X150269819Y-95996553D01*
X150269819Y-94425125D02*
X150269819Y-94996553D01*
X150269819Y-94710839D02*
X149269819Y-94710839D01*
X149269819Y-94710839D02*
X149412676Y-94806077D01*
X149412676Y-94806077D02*
X149507914Y-94901315D01*
X149507914Y-94901315D02*
X149555533Y-94996553D01*
X145069819Y-96291792D02*
X144593628Y-96625125D01*
X145069819Y-96863220D02*
X144069819Y-96863220D01*
X144069819Y-96863220D02*
X144069819Y-96482268D01*
X144069819Y-96482268D02*
X144117438Y-96387030D01*
X144117438Y-96387030D02*
X144165057Y-96339411D01*
X144165057Y-96339411D02*
X144260295Y-96291792D01*
X144260295Y-96291792D02*
X144403152Y-96291792D01*
X144403152Y-96291792D02*
X144498390Y-96339411D01*
X144498390Y-96339411D02*
X144546009Y-96387030D01*
X144546009Y-96387030D02*
X144593628Y-96482268D01*
X144593628Y-96482268D02*
X144593628Y-96863220D01*
X144069819Y-95958458D02*
X145069819Y-95291792D01*
X144069819Y-95291792D02*
X145069819Y-95958458D01*
X145069819Y-94387030D02*
X145069819Y-94958458D01*
X145069819Y-94672744D02*
X144069819Y-94672744D01*
X144069819Y-94672744D02*
X144212676Y-94767982D01*
X144212676Y-94767982D02*
X144307914Y-94863220D01*
X144307914Y-94863220D02*
X144355533Y-94958458D01*
X154117438Y-96339411D02*
X154069819Y-96434649D01*
X154069819Y-96434649D02*
X154069819Y-96577506D01*
X154069819Y-96577506D02*
X154117438Y-96720363D01*
X154117438Y-96720363D02*
X154212676Y-96815601D01*
X154212676Y-96815601D02*
X154307914Y-96863220D01*
X154307914Y-96863220D02*
X154498390Y-96910839D01*
X154498390Y-96910839D02*
X154641247Y-96910839D01*
X154641247Y-96910839D02*
X154831723Y-96863220D01*
X154831723Y-96863220D02*
X154926961Y-96815601D01*
X154926961Y-96815601D02*
X155022200Y-96720363D01*
X155022200Y-96720363D02*
X155069819Y-96577506D01*
X155069819Y-96577506D02*
X155069819Y-96482268D01*
X155069819Y-96482268D02*
X155022200Y-96339411D01*
X155022200Y-96339411D02*
X154974580Y-96291792D01*
X154974580Y-96291792D02*
X154641247Y-96291792D01*
X154641247Y-96291792D02*
X154641247Y-96482268D01*
X155069819Y-95863220D02*
X154069819Y-95863220D01*
X154069819Y-95863220D02*
X155069819Y-95291792D01*
X155069819Y-95291792D02*
X154069819Y-95291792D01*
X155069819Y-94815601D02*
X154069819Y-94815601D01*
X154069819Y-94815601D02*
X154069819Y-94577506D01*
X154069819Y-94577506D02*
X154117438Y-94434649D01*
X154117438Y-94434649D02*
X154212676Y-94339411D01*
X154212676Y-94339411D02*
X154307914Y-94291792D01*
X154307914Y-94291792D02*
X154498390Y-94244173D01*
X154498390Y-94244173D02*
X154641247Y-94244173D01*
X154641247Y-94244173D02*
X154831723Y-94291792D01*
X154831723Y-94291792D02*
X154926961Y-94339411D01*
X154926961Y-94339411D02*
X155022200Y-94434649D01*
X155022200Y-94434649D02*
X155069819Y-94577506D01*
X155069819Y-94577506D02*
X155069819Y-94815601D01*
X154165057Y-93863220D02*
X154117438Y-93815601D01*
X154117438Y-93815601D02*
X154069819Y-93720363D01*
X154069819Y-93720363D02*
X154069819Y-93482268D01*
X154069819Y-93482268D02*
X154117438Y-93387030D01*
X154117438Y-93387030D02*
X154165057Y-93339411D01*
X154165057Y-93339411D02*
X154260295Y-93291792D01*
X154260295Y-93291792D02*
X154355533Y-93291792D01*
X154355533Y-93291792D02*
X154498390Y-93339411D01*
X154498390Y-93339411D02*
X155069819Y-93910839D01*
X155069819Y-93910839D02*
X155069819Y-93291792D01*
X129146009Y-96529887D02*
X129193628Y-96387030D01*
X129193628Y-96387030D02*
X129241247Y-96339411D01*
X129241247Y-96339411D02*
X129336485Y-96291792D01*
X129336485Y-96291792D02*
X129479342Y-96291792D01*
X129479342Y-96291792D02*
X129574580Y-96339411D01*
X129574580Y-96339411D02*
X129622200Y-96387030D01*
X129622200Y-96387030D02*
X129669819Y-96482268D01*
X129669819Y-96482268D02*
X129669819Y-96863220D01*
X129669819Y-96863220D02*
X128669819Y-96863220D01*
X128669819Y-96863220D02*
X128669819Y-96529887D01*
X128669819Y-96529887D02*
X128717438Y-96434649D01*
X128717438Y-96434649D02*
X128765057Y-96387030D01*
X128765057Y-96387030D02*
X128860295Y-96339411D01*
X128860295Y-96339411D02*
X128955533Y-96339411D01*
X128955533Y-96339411D02*
X129050771Y-96387030D01*
X129050771Y-96387030D02*
X129098390Y-96434649D01*
X129098390Y-96434649D02*
X129146009Y-96529887D01*
X129146009Y-96529887D02*
X129146009Y-96863220D01*
X129384104Y-95910839D02*
X129384104Y-95434649D01*
X129669819Y-96006077D02*
X128669819Y-95672744D01*
X128669819Y-95672744D02*
X129669819Y-95339411D01*
X128669819Y-95148934D02*
X128669819Y-94577506D01*
X129669819Y-94863220D02*
X128669819Y-94863220D01*
X129669819Y-93720363D02*
X129669819Y-94291791D01*
X129669819Y-94006077D02*
X128669819Y-94006077D01*
X128669819Y-94006077D02*
X128812676Y-94101315D01*
X128812676Y-94101315D02*
X128907914Y-94196553D01*
X128907914Y-94196553D02*
X128955533Y-94291791D01*
X141469819Y-97006077D02*
X141469819Y-96434649D01*
X142469819Y-96720363D02*
X141469819Y-96720363D01*
X141469819Y-96196553D02*
X142469819Y-95529887D01*
X141469819Y-95529887D02*
X142469819Y-96196553D01*
X141469819Y-94958458D02*
X141469819Y-94863220D01*
X141469819Y-94863220D02*
X141517438Y-94767982D01*
X141517438Y-94767982D02*
X141565057Y-94720363D01*
X141565057Y-94720363D02*
X141660295Y-94672744D01*
X141660295Y-94672744D02*
X141850771Y-94625125D01*
X141850771Y-94625125D02*
X142088866Y-94625125D01*
X142088866Y-94625125D02*
X142279342Y-94672744D01*
X142279342Y-94672744D02*
X142374580Y-94720363D01*
X142374580Y-94720363D02*
X142422200Y-94767982D01*
X142422200Y-94767982D02*
X142469819Y-94863220D01*
X142469819Y-94863220D02*
X142469819Y-94958458D01*
X142469819Y-94958458D02*
X142422200Y-95053696D01*
X142422200Y-95053696D02*
X142374580Y-95101315D01*
X142374580Y-95101315D02*
X142279342Y-95148934D01*
X142279342Y-95148934D02*
X142088866Y-95196553D01*
X142088866Y-95196553D02*
X141850771Y-95196553D01*
X141850771Y-95196553D02*
X141660295Y-95148934D01*
X141660295Y-95148934D02*
X141565057Y-95101315D01*
X141565057Y-95101315D02*
X141517438Y-95053696D01*
X141517438Y-95053696D02*
X141469819Y-94958458D01*
X144517438Y-75139411D02*
X144469819Y-75234649D01*
X144469819Y-75234649D02*
X144469819Y-75377506D01*
X144469819Y-75377506D02*
X144517438Y-75520363D01*
X144517438Y-75520363D02*
X144612676Y-75615601D01*
X144612676Y-75615601D02*
X144707914Y-75663220D01*
X144707914Y-75663220D02*
X144898390Y-75710839D01*
X144898390Y-75710839D02*
X145041247Y-75710839D01*
X145041247Y-75710839D02*
X145231723Y-75663220D01*
X145231723Y-75663220D02*
X145326961Y-75615601D01*
X145326961Y-75615601D02*
X145422200Y-75520363D01*
X145422200Y-75520363D02*
X145469819Y-75377506D01*
X145469819Y-75377506D02*
X145469819Y-75282268D01*
X145469819Y-75282268D02*
X145422200Y-75139411D01*
X145422200Y-75139411D02*
X145374580Y-75091792D01*
X145374580Y-75091792D02*
X145041247Y-75091792D01*
X145041247Y-75091792D02*
X145041247Y-75282268D01*
X145469819Y-74663220D02*
X144469819Y-74663220D01*
X144469819Y-74663220D02*
X145469819Y-74091792D01*
X145469819Y-74091792D02*
X144469819Y-74091792D01*
X145469819Y-73615601D02*
X144469819Y-73615601D01*
X144469819Y-73615601D02*
X144469819Y-73377506D01*
X144469819Y-73377506D02*
X144517438Y-73234649D01*
X144517438Y-73234649D02*
X144612676Y-73139411D01*
X144612676Y-73139411D02*
X144707914Y-73091792D01*
X144707914Y-73091792D02*
X144898390Y-73044173D01*
X144898390Y-73044173D02*
X145041247Y-73044173D01*
X145041247Y-73044173D02*
X145231723Y-73091792D01*
X145231723Y-73091792D02*
X145326961Y-73139411D01*
X145326961Y-73139411D02*
X145422200Y-73234649D01*
X145422200Y-73234649D02*
X145469819Y-73377506D01*
X145469819Y-73377506D02*
X145469819Y-73615601D01*
X158222493Y-84069819D02*
X158222493Y-84784104D01*
X158222493Y-84784104D02*
X158174874Y-84926961D01*
X158174874Y-84926961D02*
X158079636Y-85022200D01*
X158079636Y-85022200D02*
X157936779Y-85069819D01*
X157936779Y-85069819D02*
X157841541Y-85069819D01*
X159174874Y-85069819D02*
X158698684Y-85069819D01*
X158698684Y-85069819D02*
X158698684Y-84069819D01*
X160079636Y-84974580D02*
X160032017Y-85022200D01*
X160032017Y-85022200D02*
X159889160Y-85069819D01*
X159889160Y-85069819D02*
X159793922Y-85069819D01*
X159793922Y-85069819D02*
X159651065Y-85022200D01*
X159651065Y-85022200D02*
X159555827Y-84926961D01*
X159555827Y-84926961D02*
X159508208Y-84831723D01*
X159508208Y-84831723D02*
X159460589Y-84641247D01*
X159460589Y-84641247D02*
X159460589Y-84498390D01*
X159460589Y-84498390D02*
X159508208Y-84307914D01*
X159508208Y-84307914D02*
X159555827Y-84212676D01*
X159555827Y-84212676D02*
X159651065Y-84117438D01*
X159651065Y-84117438D02*
X159793922Y-84069819D01*
X159793922Y-84069819D02*
X159889160Y-84069819D01*
X159889160Y-84069819D02*
X160032017Y-84117438D01*
X160032017Y-84117438D02*
X160079636Y-84165057D01*
X160793922Y-84069819D02*
X160793922Y-84784104D01*
X160793922Y-84784104D02*
X160746303Y-84926961D01*
X160746303Y-84926961D02*
X160651065Y-85022200D01*
X160651065Y-85022200D02*
X160508208Y-85069819D01*
X160508208Y-85069819D02*
X160412970Y-85069819D01*
X161746303Y-85069819D02*
X161270113Y-85069819D01*
X161270113Y-85069819D02*
X161270113Y-84069819D01*
X162651065Y-84974580D02*
X162603446Y-85022200D01*
X162603446Y-85022200D02*
X162460589Y-85069819D01*
X162460589Y-85069819D02*
X162365351Y-85069819D01*
X162365351Y-85069819D02*
X162222494Y-85022200D01*
X162222494Y-85022200D02*
X162127256Y-84926961D01*
X162127256Y-84926961D02*
X162079637Y-84831723D01*
X162079637Y-84831723D02*
X162032018Y-84641247D01*
X162032018Y-84641247D02*
X162032018Y-84498390D01*
X162032018Y-84498390D02*
X162079637Y-84307914D01*
X162079637Y-84307914D02*
X162127256Y-84212676D01*
X162127256Y-84212676D02*
X162222494Y-84117438D01*
X162222494Y-84117438D02*
X162365351Y-84069819D01*
X162365351Y-84069819D02*
X162460589Y-84069819D01*
X162460589Y-84069819D02*
X162603446Y-84117438D01*
X162603446Y-84117438D02*
X162651065Y-84165057D01*
X163365351Y-84069819D02*
X163365351Y-84784104D01*
X163365351Y-84784104D02*
X163317732Y-84926961D01*
X163317732Y-84926961D02*
X163222494Y-85022200D01*
X163222494Y-85022200D02*
X163079637Y-85069819D01*
X163079637Y-85069819D02*
X162984399Y-85069819D01*
X164317732Y-85069819D02*
X163841542Y-85069819D01*
X163841542Y-85069819D02*
X163841542Y-84069819D01*
X165222494Y-84974580D02*
X165174875Y-85022200D01*
X165174875Y-85022200D02*
X165032018Y-85069819D01*
X165032018Y-85069819D02*
X164936780Y-85069819D01*
X164936780Y-85069819D02*
X164793923Y-85022200D01*
X164793923Y-85022200D02*
X164698685Y-84926961D01*
X164698685Y-84926961D02*
X164651066Y-84831723D01*
X164651066Y-84831723D02*
X164603447Y-84641247D01*
X164603447Y-84641247D02*
X164603447Y-84498390D01*
X164603447Y-84498390D02*
X164651066Y-84307914D01*
X164651066Y-84307914D02*
X164698685Y-84212676D01*
X164698685Y-84212676D02*
X164793923Y-84117438D01*
X164793923Y-84117438D02*
X164936780Y-84069819D01*
X164936780Y-84069819D02*
X165032018Y-84069819D01*
X165032018Y-84069819D02*
X165174875Y-84117438D01*
X165174875Y-84117438D02*
X165222494Y-84165057D01*
X165936780Y-84069819D02*
X165936780Y-84784104D01*
X165936780Y-84784104D02*
X165889161Y-84926961D01*
X165889161Y-84926961D02*
X165793923Y-85022200D01*
X165793923Y-85022200D02*
X165651066Y-85069819D01*
X165651066Y-85069819D02*
X165555828Y-85069819D01*
X166889161Y-85069819D02*
X166412971Y-85069819D01*
X166412971Y-85069819D02*
X166412971Y-84069819D01*
X167793923Y-84974580D02*
X167746304Y-85022200D01*
X167746304Y-85022200D02*
X167603447Y-85069819D01*
X167603447Y-85069819D02*
X167508209Y-85069819D01*
X167508209Y-85069819D02*
X167365352Y-85022200D01*
X167365352Y-85022200D02*
X167270114Y-84926961D01*
X167270114Y-84926961D02*
X167222495Y-84831723D01*
X167222495Y-84831723D02*
X167174876Y-84641247D01*
X167174876Y-84641247D02*
X167174876Y-84498390D01*
X167174876Y-84498390D02*
X167222495Y-84307914D01*
X167222495Y-84307914D02*
X167270114Y-84212676D01*
X167270114Y-84212676D02*
X167365352Y-84117438D01*
X167365352Y-84117438D02*
X167508209Y-84069819D01*
X167508209Y-84069819D02*
X167603447Y-84069819D01*
X167603447Y-84069819D02*
X167746304Y-84117438D01*
X167746304Y-84117438D02*
X167793923Y-84165057D01*
X139069819Y-97006077D02*
X139069819Y-96434649D01*
X140069819Y-96720363D02*
X139069819Y-96720363D01*
X139069819Y-96196553D02*
X140069819Y-95529887D01*
X139069819Y-95529887D02*
X140069819Y-96196553D01*
X139546009Y-95148934D02*
X139546009Y-94815601D01*
X140069819Y-94672744D02*
X140069819Y-95148934D01*
X140069819Y-95148934D02*
X139069819Y-95148934D01*
X139069819Y-95148934D02*
X139069819Y-94672744D01*
X140069819Y-94244172D02*
X139069819Y-94244172D01*
X139069819Y-94244172D02*
X140069819Y-93672744D01*
X140069819Y-93672744D02*
X139069819Y-93672744D01*
X139069819Y-93006077D02*
X139069819Y-92910839D01*
X139069819Y-92910839D02*
X139117438Y-92815601D01*
X139117438Y-92815601D02*
X139165057Y-92767982D01*
X139165057Y-92767982D02*
X139260295Y-92720363D01*
X139260295Y-92720363D02*
X139450771Y-92672744D01*
X139450771Y-92672744D02*
X139688866Y-92672744D01*
X139688866Y-92672744D02*
X139879342Y-92720363D01*
X139879342Y-92720363D02*
X139974580Y-92767982D01*
X139974580Y-92767982D02*
X140022200Y-92815601D01*
X140022200Y-92815601D02*
X140069819Y-92910839D01*
X140069819Y-92910839D02*
X140069819Y-93006077D01*
X140069819Y-93006077D02*
X140022200Y-93101315D01*
X140022200Y-93101315D02*
X139974580Y-93148934D01*
X139974580Y-93148934D02*
X139879342Y-93196553D01*
X139879342Y-93196553D02*
X139688866Y-93244172D01*
X139688866Y-93244172D02*
X139450771Y-93244172D01*
X139450771Y-93244172D02*
X139260295Y-93196553D01*
X139260295Y-93196553D02*
X139165057Y-93148934D01*
X139165057Y-93148934D02*
X139117438Y-93101315D01*
X139117438Y-93101315D02*
X139069819Y-93006077D01*
X151917438Y-96139411D02*
X151869819Y-96234649D01*
X151869819Y-96234649D02*
X151869819Y-96377506D01*
X151869819Y-96377506D02*
X151917438Y-96520363D01*
X151917438Y-96520363D02*
X152012676Y-96615601D01*
X152012676Y-96615601D02*
X152107914Y-96663220D01*
X152107914Y-96663220D02*
X152298390Y-96710839D01*
X152298390Y-96710839D02*
X152441247Y-96710839D01*
X152441247Y-96710839D02*
X152631723Y-96663220D01*
X152631723Y-96663220D02*
X152726961Y-96615601D01*
X152726961Y-96615601D02*
X152822200Y-96520363D01*
X152822200Y-96520363D02*
X152869819Y-96377506D01*
X152869819Y-96377506D02*
X152869819Y-96282268D01*
X152869819Y-96282268D02*
X152822200Y-96139411D01*
X152822200Y-96139411D02*
X152774580Y-96091792D01*
X152774580Y-96091792D02*
X152441247Y-96091792D01*
X152441247Y-96091792D02*
X152441247Y-96282268D01*
X152869819Y-95663220D02*
X151869819Y-95663220D01*
X151869819Y-95663220D02*
X152869819Y-95091792D01*
X152869819Y-95091792D02*
X151869819Y-95091792D01*
X152869819Y-94615601D02*
X151869819Y-94615601D01*
X151869819Y-94615601D02*
X151869819Y-94377506D01*
X151869819Y-94377506D02*
X151917438Y-94234649D01*
X151917438Y-94234649D02*
X152012676Y-94139411D01*
X152012676Y-94139411D02*
X152107914Y-94091792D01*
X152107914Y-94091792D02*
X152298390Y-94044173D01*
X152298390Y-94044173D02*
X152441247Y-94044173D01*
X152441247Y-94044173D02*
X152631723Y-94091792D01*
X152631723Y-94091792D02*
X152726961Y-94139411D01*
X152726961Y-94139411D02*
X152822200Y-94234649D01*
X152822200Y-94234649D02*
X152869819Y-94377506D01*
X152869819Y-94377506D02*
X152869819Y-94615601D01*
X146669819Y-97006077D02*
X146669819Y-96434649D01*
X147669819Y-96720363D02*
X146669819Y-96720363D01*
X146669819Y-96196553D02*
X147669819Y-95529887D01*
X146669819Y-95529887D02*
X147669819Y-96196553D01*
X147146009Y-95148934D02*
X147146009Y-94815601D01*
X147669819Y-94672744D02*
X147669819Y-95148934D01*
X147669819Y-95148934D02*
X146669819Y-95148934D01*
X146669819Y-95148934D02*
X146669819Y-94672744D01*
X147669819Y-94244172D02*
X146669819Y-94244172D01*
X146669819Y-94244172D02*
X147669819Y-93672744D01*
X147669819Y-93672744D02*
X146669819Y-93672744D01*
X147669819Y-92672744D02*
X147669819Y-93244172D01*
X147669819Y-92958458D02*
X146669819Y-92958458D01*
X146669819Y-92958458D02*
X146812676Y-93053696D01*
X146812676Y-93053696D02*
X146907914Y-93148934D01*
X146907914Y-93148934D02*
X146955533Y-93244172D01*
X148054819Y-72795238D02*
X147578628Y-73128571D01*
X148054819Y-73366666D02*
X147054819Y-73366666D01*
X147054819Y-73366666D02*
X147054819Y-72985714D01*
X147054819Y-72985714D02*
X147102438Y-72890476D01*
X147102438Y-72890476D02*
X147150057Y-72842857D01*
X147150057Y-72842857D02*
X147245295Y-72795238D01*
X147245295Y-72795238D02*
X147388152Y-72795238D01*
X147388152Y-72795238D02*
X147483390Y-72842857D01*
X147483390Y-72842857D02*
X147531009Y-72890476D01*
X147531009Y-72890476D02*
X147578628Y-72985714D01*
X147578628Y-72985714D02*
X147578628Y-73366666D01*
X148007200Y-72414285D02*
X148054819Y-72271428D01*
X148054819Y-72271428D02*
X148054819Y-72033333D01*
X148054819Y-72033333D02*
X148007200Y-71938095D01*
X148007200Y-71938095D02*
X147959580Y-71890476D01*
X147959580Y-71890476D02*
X147864342Y-71842857D01*
X147864342Y-71842857D02*
X147769104Y-71842857D01*
X147769104Y-71842857D02*
X147673866Y-71890476D01*
X147673866Y-71890476D02*
X147626247Y-71938095D01*
X147626247Y-71938095D02*
X147578628Y-72033333D01*
X147578628Y-72033333D02*
X147531009Y-72223809D01*
X147531009Y-72223809D02*
X147483390Y-72319047D01*
X147483390Y-72319047D02*
X147435771Y-72366666D01*
X147435771Y-72366666D02*
X147340533Y-72414285D01*
X147340533Y-72414285D02*
X147245295Y-72414285D01*
X147245295Y-72414285D02*
X147150057Y-72366666D01*
X147150057Y-72366666D02*
X147102438Y-72319047D01*
X147102438Y-72319047D02*
X147054819Y-72223809D01*
X147054819Y-72223809D02*
X147054819Y-71985714D01*
X147054819Y-71985714D02*
X147102438Y-71842857D01*
X147388152Y-70985714D02*
X148054819Y-70985714D01*
X147007200Y-71223809D02*
X147721485Y-71461904D01*
X147721485Y-71461904D02*
X147721485Y-70842857D01*
X147483390Y-70319047D02*
X147435771Y-70414285D01*
X147435771Y-70414285D02*
X147388152Y-70461904D01*
X147388152Y-70461904D02*
X147292914Y-70509523D01*
X147292914Y-70509523D02*
X147245295Y-70509523D01*
X147245295Y-70509523D02*
X147150057Y-70461904D01*
X147150057Y-70461904D02*
X147102438Y-70414285D01*
X147102438Y-70414285D02*
X147054819Y-70319047D01*
X147054819Y-70319047D02*
X147054819Y-70128571D01*
X147054819Y-70128571D02*
X147102438Y-70033333D01*
X147102438Y-70033333D02*
X147150057Y-69985714D01*
X147150057Y-69985714D02*
X147245295Y-69938095D01*
X147245295Y-69938095D02*
X147292914Y-69938095D01*
X147292914Y-69938095D02*
X147388152Y-69985714D01*
X147388152Y-69985714D02*
X147435771Y-70033333D01*
X147435771Y-70033333D02*
X147483390Y-70128571D01*
X147483390Y-70128571D02*
X147483390Y-70319047D01*
X147483390Y-70319047D02*
X147531009Y-70414285D01*
X147531009Y-70414285D02*
X147578628Y-70461904D01*
X147578628Y-70461904D02*
X147673866Y-70509523D01*
X147673866Y-70509523D02*
X147864342Y-70509523D01*
X147864342Y-70509523D02*
X147959580Y-70461904D01*
X147959580Y-70461904D02*
X148007200Y-70414285D01*
X148007200Y-70414285D02*
X148054819Y-70319047D01*
X148054819Y-70319047D02*
X148054819Y-70128571D01*
X148054819Y-70128571D02*
X148007200Y-70033333D01*
X148007200Y-70033333D02*
X147959580Y-69985714D01*
X147959580Y-69985714D02*
X147864342Y-69938095D01*
X147864342Y-69938095D02*
X147673866Y-69938095D01*
X147673866Y-69938095D02*
X147578628Y-69985714D01*
X147578628Y-69985714D02*
X147531009Y-70033333D01*
X147531009Y-70033333D02*
X147483390Y-70128571D01*
X147054819Y-69033333D02*
X147054819Y-69509523D01*
X147054819Y-69509523D02*
X147531009Y-69557142D01*
X147531009Y-69557142D02*
X147483390Y-69509523D01*
X147483390Y-69509523D02*
X147435771Y-69414285D01*
X147435771Y-69414285D02*
X147435771Y-69176190D01*
X147435771Y-69176190D02*
X147483390Y-69080952D01*
X147483390Y-69080952D02*
X147531009Y-69033333D01*
X147531009Y-69033333D02*
X147626247Y-68985714D01*
X147626247Y-68985714D02*
X147864342Y-68985714D01*
X147864342Y-68985714D02*
X147959580Y-69033333D01*
X147959580Y-69033333D02*
X148007200Y-69080952D01*
X148007200Y-69080952D02*
X148054819Y-69176190D01*
X148054819Y-69176190D02*
X148054819Y-69414285D01*
X148054819Y-69414285D02*
X148007200Y-69509523D01*
X148007200Y-69509523D02*
X147959580Y-69557142D01*
X133204819Y-77516666D02*
X132728628Y-77849999D01*
X133204819Y-78088094D02*
X132204819Y-78088094D01*
X132204819Y-78088094D02*
X132204819Y-77707142D01*
X132204819Y-77707142D02*
X132252438Y-77611904D01*
X132252438Y-77611904D02*
X132300057Y-77564285D01*
X132300057Y-77564285D02*
X132395295Y-77516666D01*
X132395295Y-77516666D02*
X132538152Y-77516666D01*
X132538152Y-77516666D02*
X132633390Y-77564285D01*
X132633390Y-77564285D02*
X132681009Y-77611904D01*
X132681009Y-77611904D02*
X132728628Y-77707142D01*
X132728628Y-77707142D02*
X132728628Y-78088094D01*
X133204819Y-76564285D02*
X133204819Y-77135713D01*
X133204819Y-76849999D02*
X132204819Y-76849999D01*
X132204819Y-76849999D02*
X132347676Y-76945237D01*
X132347676Y-76945237D02*
X132442914Y-77040475D01*
X132442914Y-77040475D02*
X132490533Y-77135713D01*
X142538095Y-76654819D02*
X142538095Y-77464342D01*
X142538095Y-77464342D02*
X142585714Y-77559580D01*
X142585714Y-77559580D02*
X142633333Y-77607200D01*
X142633333Y-77607200D02*
X142728571Y-77654819D01*
X142728571Y-77654819D02*
X142919047Y-77654819D01*
X142919047Y-77654819D02*
X143014285Y-77607200D01*
X143014285Y-77607200D02*
X143061904Y-77559580D01*
X143061904Y-77559580D02*
X143109523Y-77464342D01*
X143109523Y-77464342D02*
X143109523Y-76654819D01*
X143538095Y-76750057D02*
X143585714Y-76702438D01*
X143585714Y-76702438D02*
X143680952Y-76654819D01*
X143680952Y-76654819D02*
X143919047Y-76654819D01*
X143919047Y-76654819D02*
X144014285Y-76702438D01*
X144014285Y-76702438D02*
X144061904Y-76750057D01*
X144061904Y-76750057D02*
X144109523Y-76845295D01*
X144109523Y-76845295D02*
X144109523Y-76940533D01*
X144109523Y-76940533D02*
X144061904Y-77083390D01*
X144061904Y-77083390D02*
X143490476Y-77654819D01*
X143490476Y-77654819D02*
X144109523Y-77654819D01*
X137188095Y-84654819D02*
X137188095Y-85464342D01*
X137188095Y-85464342D02*
X137235714Y-85559580D01*
X137235714Y-85559580D02*
X137283333Y-85607200D01*
X137283333Y-85607200D02*
X137378571Y-85654819D01*
X137378571Y-85654819D02*
X137569047Y-85654819D01*
X137569047Y-85654819D02*
X137664285Y-85607200D01*
X137664285Y-85607200D02*
X137711904Y-85559580D01*
X137711904Y-85559580D02*
X137759523Y-85464342D01*
X137759523Y-85464342D02*
X137759523Y-84654819D01*
X138759523Y-85654819D02*
X138188095Y-85654819D01*
X138473809Y-85654819D02*
X138473809Y-84654819D01*
X138473809Y-84654819D02*
X138378571Y-84797676D01*
X138378571Y-84797676D02*
X138283333Y-84892914D01*
X138283333Y-84892914D02*
X138188095Y-84940533D01*
X157724819Y-100559999D02*
X156724819Y-100559999D01*
X156724819Y-100559999D02*
X156724819Y-100321904D01*
X156724819Y-100321904D02*
X156772438Y-100179047D01*
X156772438Y-100179047D02*
X156867676Y-100083809D01*
X156867676Y-100083809D02*
X156962914Y-100036190D01*
X156962914Y-100036190D02*
X157153390Y-99988571D01*
X157153390Y-99988571D02*
X157296247Y-99988571D01*
X157296247Y-99988571D02*
X157486723Y-100036190D01*
X157486723Y-100036190D02*
X157581961Y-100083809D01*
X157581961Y-100083809D02*
X157677200Y-100179047D01*
X157677200Y-100179047D02*
X157724819Y-100321904D01*
X157724819Y-100321904D02*
X157724819Y-100559999D01*
X157439104Y-99607618D02*
X157439104Y-99131428D01*
X157724819Y-99702856D02*
X156724819Y-99369523D01*
X156724819Y-99369523D02*
X157724819Y-99036190D01*
X156724819Y-98845713D02*
X156724819Y-98274285D01*
X157724819Y-98559999D02*
X156724819Y-98559999D01*
X157439104Y-97988570D02*
X157439104Y-97512380D01*
X157724819Y-98083808D02*
X156724819Y-97750475D01*
X156724819Y-97750475D02*
X157724819Y-97417142D01*
X148783333Y-82509580D02*
X148735714Y-82557200D01*
X148735714Y-82557200D02*
X148592857Y-82604819D01*
X148592857Y-82604819D02*
X148497619Y-82604819D01*
X148497619Y-82604819D02*
X148354762Y-82557200D01*
X148354762Y-82557200D02*
X148259524Y-82461961D01*
X148259524Y-82461961D02*
X148211905Y-82366723D01*
X148211905Y-82366723D02*
X148164286Y-82176247D01*
X148164286Y-82176247D02*
X148164286Y-82033390D01*
X148164286Y-82033390D02*
X148211905Y-81842914D01*
X148211905Y-81842914D02*
X148259524Y-81747676D01*
X148259524Y-81747676D02*
X148354762Y-81652438D01*
X148354762Y-81652438D02*
X148497619Y-81604819D01*
X148497619Y-81604819D02*
X148592857Y-81604819D01*
X148592857Y-81604819D02*
X148735714Y-81652438D01*
X148735714Y-81652438D02*
X148783333Y-81700057D01*
X149164286Y-81700057D02*
X149211905Y-81652438D01*
X149211905Y-81652438D02*
X149307143Y-81604819D01*
X149307143Y-81604819D02*
X149545238Y-81604819D01*
X149545238Y-81604819D02*
X149640476Y-81652438D01*
X149640476Y-81652438D02*
X149688095Y-81700057D01*
X149688095Y-81700057D02*
X149735714Y-81795295D01*
X149735714Y-81795295D02*
X149735714Y-81890533D01*
X149735714Y-81890533D02*
X149688095Y-82033390D01*
X149688095Y-82033390D02*
X149116667Y-82604819D01*
X149116667Y-82604819D02*
X149735714Y-82604819D01*
X133217319Y-79966666D02*
X132741128Y-80299999D01*
X133217319Y-80538094D02*
X132217319Y-80538094D01*
X132217319Y-80538094D02*
X132217319Y-80157142D01*
X132217319Y-80157142D02*
X132264938Y-80061904D01*
X132264938Y-80061904D02*
X132312557Y-80014285D01*
X132312557Y-80014285D02*
X132407795Y-79966666D01*
X132407795Y-79966666D02*
X132550652Y-79966666D01*
X132550652Y-79966666D02*
X132645890Y-80014285D01*
X132645890Y-80014285D02*
X132693509Y-80061904D01*
X132693509Y-80061904D02*
X132741128Y-80157142D01*
X132741128Y-80157142D02*
X132741128Y-80538094D01*
X132312557Y-79585713D02*
X132264938Y-79538094D01*
X132264938Y-79538094D02*
X132217319Y-79442856D01*
X132217319Y-79442856D02*
X132217319Y-79204761D01*
X132217319Y-79204761D02*
X132264938Y-79109523D01*
X132264938Y-79109523D02*
X132312557Y-79061904D01*
X132312557Y-79061904D02*
X132407795Y-79014285D01*
X132407795Y-79014285D02*
X132503033Y-79014285D01*
X132503033Y-79014285D02*
X132645890Y-79061904D01*
X132645890Y-79061904D02*
X133217319Y-79633332D01*
X133217319Y-79633332D02*
X133217319Y-79014285D01*
X132783333Y-87359580D02*
X132735714Y-87407200D01*
X132735714Y-87407200D02*
X132592857Y-87454819D01*
X132592857Y-87454819D02*
X132497619Y-87454819D01*
X132497619Y-87454819D02*
X132354762Y-87407200D01*
X132354762Y-87407200D02*
X132259524Y-87311961D01*
X132259524Y-87311961D02*
X132211905Y-87216723D01*
X132211905Y-87216723D02*
X132164286Y-87026247D01*
X132164286Y-87026247D02*
X132164286Y-86883390D01*
X132164286Y-86883390D02*
X132211905Y-86692914D01*
X132211905Y-86692914D02*
X132259524Y-86597676D01*
X132259524Y-86597676D02*
X132354762Y-86502438D01*
X132354762Y-86502438D02*
X132497619Y-86454819D01*
X132497619Y-86454819D02*
X132592857Y-86454819D01*
X132592857Y-86454819D02*
X132735714Y-86502438D01*
X132735714Y-86502438D02*
X132783333Y-86550057D01*
X133735714Y-87454819D02*
X133164286Y-87454819D01*
X133450000Y-87454819D02*
X133450000Y-86454819D01*
X133450000Y-86454819D02*
X133354762Y-86597676D01*
X133354762Y-86597676D02*
X133259524Y-86692914D01*
X133259524Y-86692914D02*
X133164286Y-86740533D01*
X149654819Y-88316666D02*
X149178628Y-88649999D01*
X149654819Y-88888094D02*
X148654819Y-88888094D01*
X148654819Y-88888094D02*
X148654819Y-88507142D01*
X148654819Y-88507142D02*
X148702438Y-88411904D01*
X148702438Y-88411904D02*
X148750057Y-88364285D01*
X148750057Y-88364285D02*
X148845295Y-88316666D01*
X148845295Y-88316666D02*
X148988152Y-88316666D01*
X148988152Y-88316666D02*
X149083390Y-88364285D01*
X149083390Y-88364285D02*
X149131009Y-88411904D01*
X149131009Y-88411904D02*
X149178628Y-88507142D01*
X149178628Y-88507142D02*
X149178628Y-88888094D01*
X148654819Y-87411904D02*
X148654819Y-87888094D01*
X148654819Y-87888094D02*
X149131009Y-87935713D01*
X149131009Y-87935713D02*
X149083390Y-87888094D01*
X149083390Y-87888094D02*
X149035771Y-87792856D01*
X149035771Y-87792856D02*
X149035771Y-87554761D01*
X149035771Y-87554761D02*
X149083390Y-87459523D01*
X149083390Y-87459523D02*
X149131009Y-87411904D01*
X149131009Y-87411904D02*
X149226247Y-87364285D01*
X149226247Y-87364285D02*
X149464342Y-87364285D01*
X149464342Y-87364285D02*
X149559580Y-87411904D01*
X149559580Y-87411904D02*
X149607200Y-87459523D01*
X149607200Y-87459523D02*
X149654819Y-87554761D01*
X149654819Y-87554761D02*
X149654819Y-87792856D01*
X149654819Y-87792856D02*
X149607200Y-87888094D01*
X149607200Y-87888094D02*
X149559580Y-87935713D01*
X149542319Y-90816666D02*
X149066128Y-91149999D01*
X149542319Y-91388094D02*
X148542319Y-91388094D01*
X148542319Y-91388094D02*
X148542319Y-91007142D01*
X148542319Y-91007142D02*
X148589938Y-90911904D01*
X148589938Y-90911904D02*
X148637557Y-90864285D01*
X148637557Y-90864285D02*
X148732795Y-90816666D01*
X148732795Y-90816666D02*
X148875652Y-90816666D01*
X148875652Y-90816666D02*
X148970890Y-90864285D01*
X148970890Y-90864285D02*
X149018509Y-90911904D01*
X149018509Y-90911904D02*
X149066128Y-91007142D01*
X149066128Y-91007142D02*
X149066128Y-91388094D01*
X148875652Y-89959523D02*
X149542319Y-89959523D01*
X148494700Y-90197618D02*
X149208985Y-90435713D01*
X149208985Y-90435713D02*
X149208985Y-89816666D01*
X149629819Y-85966666D02*
X149153628Y-86299999D01*
X149629819Y-86538094D02*
X148629819Y-86538094D01*
X148629819Y-86538094D02*
X148629819Y-86157142D01*
X148629819Y-86157142D02*
X148677438Y-86061904D01*
X148677438Y-86061904D02*
X148725057Y-86014285D01*
X148725057Y-86014285D02*
X148820295Y-85966666D01*
X148820295Y-85966666D02*
X148963152Y-85966666D01*
X148963152Y-85966666D02*
X149058390Y-86014285D01*
X149058390Y-86014285D02*
X149106009Y-86061904D01*
X149106009Y-86061904D02*
X149153628Y-86157142D01*
X149153628Y-86157142D02*
X149153628Y-86538094D01*
X148629819Y-85109523D02*
X148629819Y-85299999D01*
X148629819Y-85299999D02*
X148677438Y-85395237D01*
X148677438Y-85395237D02*
X148725057Y-85442856D01*
X148725057Y-85442856D02*
X148867914Y-85538094D01*
X148867914Y-85538094D02*
X149058390Y-85585713D01*
X149058390Y-85585713D02*
X149439342Y-85585713D01*
X149439342Y-85585713D02*
X149534580Y-85538094D01*
X149534580Y-85538094D02*
X149582200Y-85490475D01*
X149582200Y-85490475D02*
X149629819Y-85395237D01*
X149629819Y-85395237D02*
X149629819Y-85204761D01*
X149629819Y-85204761D02*
X149582200Y-85109523D01*
X149582200Y-85109523D02*
X149534580Y-85061904D01*
X149534580Y-85061904D02*
X149439342Y-85014285D01*
X149439342Y-85014285D02*
X149201247Y-85014285D01*
X149201247Y-85014285D02*
X149106009Y-85061904D01*
X149106009Y-85061904D02*
X149058390Y-85109523D01*
X149058390Y-85109523D02*
X149010771Y-85204761D01*
X149010771Y-85204761D02*
X149010771Y-85395237D01*
X149010771Y-85395237D02*
X149058390Y-85490475D01*
X149058390Y-85490475D02*
X149106009Y-85538094D01*
X149106009Y-85538094D02*
X149201247Y-85585713D01*
X159466666Y-74054819D02*
X159466666Y-74769104D01*
X159466666Y-74769104D02*
X159419047Y-74911961D01*
X159419047Y-74911961D02*
X159323809Y-75007200D01*
X159323809Y-75007200D02*
X159180952Y-75054819D01*
X159180952Y-75054819D02*
X159085714Y-75054819D01*
X160466666Y-75054819D02*
X159895238Y-75054819D01*
X160180952Y-75054819D02*
X160180952Y-74054819D01*
X160180952Y-74054819D02*
X160085714Y-74197676D01*
X160085714Y-74197676D02*
X159990476Y-74292914D01*
X159990476Y-74292914D02*
X159895238Y-74340533D01*
X133167319Y-82416666D02*
X132691128Y-82749999D01*
X133167319Y-82988094D02*
X132167319Y-82988094D01*
X132167319Y-82988094D02*
X132167319Y-82607142D01*
X132167319Y-82607142D02*
X132214938Y-82511904D01*
X132214938Y-82511904D02*
X132262557Y-82464285D01*
X132262557Y-82464285D02*
X132357795Y-82416666D01*
X132357795Y-82416666D02*
X132500652Y-82416666D01*
X132500652Y-82416666D02*
X132595890Y-82464285D01*
X132595890Y-82464285D02*
X132643509Y-82511904D01*
X132643509Y-82511904D02*
X132691128Y-82607142D01*
X132691128Y-82607142D02*
X132691128Y-82988094D01*
X132167319Y-82083332D02*
X132167319Y-81464285D01*
X132167319Y-81464285D02*
X132548271Y-81797618D01*
X132548271Y-81797618D02*
X132548271Y-81654761D01*
X132548271Y-81654761D02*
X132595890Y-81559523D01*
X132595890Y-81559523D02*
X132643509Y-81511904D01*
X132643509Y-81511904D02*
X132738747Y-81464285D01*
X132738747Y-81464285D02*
X132976842Y-81464285D01*
X132976842Y-81464285D02*
X133072080Y-81511904D01*
X133072080Y-81511904D02*
X133119700Y-81559523D01*
X133119700Y-81559523D02*
X133167319Y-81654761D01*
X133167319Y-81654761D02*
X133167319Y-81940475D01*
X133167319Y-81940475D02*
X133119700Y-82035713D01*
X133119700Y-82035713D02*
X133072080Y-82083332D01*
X121066666Y-74854819D02*
X121066666Y-75569104D01*
X121066666Y-75569104D02*
X121019047Y-75711961D01*
X121019047Y-75711961D02*
X120923809Y-75807200D01*
X120923809Y-75807200D02*
X120780952Y-75854819D01*
X120780952Y-75854819D02*
X120685714Y-75854819D01*
X121733333Y-74854819D02*
X121828571Y-74854819D01*
X121828571Y-74854819D02*
X121923809Y-74902438D01*
X121923809Y-74902438D02*
X121971428Y-74950057D01*
X121971428Y-74950057D02*
X122019047Y-75045295D01*
X122019047Y-75045295D02*
X122066666Y-75235771D01*
X122066666Y-75235771D02*
X122066666Y-75473866D01*
X122066666Y-75473866D02*
X122019047Y-75664342D01*
X122019047Y-75664342D02*
X121971428Y-75759580D01*
X121971428Y-75759580D02*
X121923809Y-75807200D01*
X121923809Y-75807200D02*
X121828571Y-75854819D01*
X121828571Y-75854819D02*
X121733333Y-75854819D01*
X121733333Y-75854819D02*
X121638095Y-75807200D01*
X121638095Y-75807200D02*
X121590476Y-75759580D01*
X121590476Y-75759580D02*
X121542857Y-75664342D01*
X121542857Y-75664342D02*
X121495238Y-75473866D01*
X121495238Y-75473866D02*
X121495238Y-75235771D01*
X121495238Y-75235771D02*
X121542857Y-75045295D01*
X121542857Y-75045295D02*
X121590476Y-74950057D01*
X121590476Y-74950057D02*
X121638095Y-74902438D01*
X121638095Y-74902438D02*
X121733333Y-74854819D01*
D11*
%TO.C,J2*%
X130750000Y-72330000D02*
X130750000Y-71000000D01*
X132080000Y-72330000D02*
X130750000Y-72330000D01*
X133350000Y-69670000D02*
X146110000Y-69670000D01*
X133350000Y-72330000D02*
X133350000Y-69670000D01*
X133350000Y-72330000D02*
X146110000Y-72330000D01*
X146110000Y-72330000D02*
X146110000Y-69670000D01*
%TO.C,R1*%
X134972936Y-76665000D02*
X135427064Y-76665000D01*
X134972936Y-78135000D02*
X135427064Y-78135000D01*
%TO.C,U2*%
X143300000Y-78040000D02*
X141350000Y-78040000D01*
X143300000Y-78040000D02*
X145250000Y-78040000D01*
X143300000Y-83160000D02*
X141350000Y-83160000D01*
X143300000Y-83160000D02*
X145250000Y-83160000D01*
X140600000Y-78135000D02*
X140360000Y-77805000D01*
X140840000Y-77805000D01*
X140600000Y-78135000D01*
G36*
X140600000Y-78135000D02*
G01*
X140360000Y-77805000D01*
X140840000Y-77805000D01*
X140600000Y-78135000D01*
G37*
%TO.C,U1*%
X138300000Y-86140000D02*
X136350000Y-86140000D01*
X138300000Y-86140000D02*
X140250000Y-86140000D01*
X138300000Y-91260000D02*
X136350000Y-91260000D01*
X138300000Y-91260000D02*
X140250000Y-91260000D01*
X141240000Y-91495000D02*
X140760000Y-91495000D01*
X141000000Y-91165000D01*
X141240000Y-91495000D01*
G36*
X141240000Y-91495000D02*
G01*
X140760000Y-91495000D01*
X141000000Y-91165000D01*
X141240000Y-91495000D01*
G37*
%TO.C,J3*%
X128210000Y-100390000D02*
X128210000Y-99060000D01*
X129540000Y-100390000D02*
X128210000Y-100390000D01*
X130810000Y-97730000D02*
X156270000Y-97730000D01*
X130810000Y-100390000D02*
X130810000Y-97730000D01*
X130810000Y-100390000D02*
X156270000Y-100390000D01*
X156270000Y-100390000D02*
X156270000Y-97730000D01*
%TO.C,C2*%
X148165000Y-79338748D02*
X148165000Y-79861252D01*
X149635000Y-79338748D02*
X149635000Y-79861252D01*
%TO.C,R2*%
X134972936Y-79065000D02*
X135427064Y-79065000D01*
X134972936Y-80535000D02*
X135427064Y-80535000D01*
%TO.C,C1*%
X132315000Y-89961252D02*
X132315000Y-89438748D01*
X133785000Y-89961252D02*
X133785000Y-89438748D01*
%TO.C,R5*%
X146964564Y-87415000D02*
X146510436Y-87415000D01*
X146964564Y-88885000D02*
X146510436Y-88885000D01*
%TO.C,R4*%
X146914564Y-89815000D02*
X146460436Y-89815000D01*
X146914564Y-91285000D02*
X146460436Y-91285000D01*
%TO.C,R6*%
X146964564Y-85015000D02*
X146510436Y-85015000D01*
X146964564Y-86485000D02*
X146510436Y-86485000D01*
%TO.C,J1*%
X151370000Y-76527500D02*
X151370000Y-92047500D01*
X151370000Y-76527500D02*
X169330000Y-76527500D01*
X151370000Y-92047500D02*
X169330000Y-92047500D01*
X154750000Y-92732500D02*
X155750000Y-92732500D01*
X155250000Y-92232500D02*
X154750000Y-92732500D01*
X155750000Y-92732500D02*
X155250000Y-92232500D01*
X169330000Y-92047500D02*
X169330000Y-76527500D01*
%TO.C,R3*%
X134922936Y-81565000D02*
X135377064Y-81565000D01*
X134922936Y-83035000D02*
X135377064Y-83035000D01*
%TO.C,J0*%
X112520000Y-76852500D02*
X112520000Y-92372500D01*
X126100000Y-76167500D02*
X126600000Y-76667500D01*
X126600000Y-76667500D02*
X127100000Y-76167500D01*
X127100000Y-76167500D02*
X126100000Y-76167500D01*
X130480000Y-76852500D02*
X112520000Y-76852500D01*
X130480000Y-92372500D02*
X112520000Y-92372500D01*
X130480000Y-92372500D02*
X130480000Y-76852500D01*
%TD*%
%LPC*%
D12*
%TO.C,J2*%
X132080000Y-71000000D03*
D13*
X134620000Y-71000000D03*
X137160000Y-71000000D03*
X139700000Y-71000000D03*
X142240000Y-71000000D03*
X144780000Y-71000000D03*
%TD*%
D14*
%TO.C,R1*%
X134287500Y-77400000D03*
X136112500Y-77400000D03*
%TD*%
D15*
%TO.C,U2*%
X140825000Y-78695000D03*
X140825000Y-79965000D03*
X140825000Y-81235000D03*
X140825000Y-82505000D03*
X145775000Y-82505000D03*
X145775000Y-81235000D03*
X145775000Y-79965000D03*
X145775000Y-78695000D03*
%TD*%
D16*
%TO.C,U1*%
X140775000Y-90605000D03*
X140775000Y-89335000D03*
X140775000Y-88065000D03*
X140775000Y-86795000D03*
X135825000Y-86795000D03*
X135825000Y-88065000D03*
X135825000Y-89335000D03*
X135825000Y-90605000D03*
%TD*%
D12*
%TO.C,J3*%
X129540000Y-99060000D03*
D13*
X132080000Y-99060000D03*
X134620000Y-99060000D03*
X137160000Y-99060000D03*
X139700000Y-99060000D03*
X142240000Y-99060000D03*
X144780000Y-99060000D03*
X147320000Y-99060000D03*
X149860000Y-99060000D03*
X152400000Y-99060000D03*
X154940000Y-99060000D03*
%TD*%
D17*
%TO.C,C2*%
X148900000Y-78650000D03*
X148900000Y-80550000D03*
%TD*%
D14*
%TO.C,R2*%
X134287500Y-79800000D03*
X136112500Y-79800000D03*
%TD*%
D18*
%TO.C,C1*%
X133050000Y-90650000D03*
X133050000Y-88750000D03*
%TD*%
D19*
%TO.C,H1*%
X115900000Y-72500000D03*
%TD*%
D20*
%TO.C,R5*%
X147650000Y-88150000D03*
X145825000Y-88150000D03*
%TD*%
%TO.C,R4*%
X147600000Y-90550000D03*
X145775000Y-90550000D03*
%TD*%
%TO.C,R6*%
X147650000Y-85750000D03*
X145825000Y-85750000D03*
%TD*%
D21*
%TO.C,J1*%
X161600000Y-90002500D03*
X161600000Y-78572500D03*
D22*
X155250000Y-88732500D03*
D23*
X152710000Y-87462500D03*
X155250000Y-86192500D03*
X152710000Y-84922500D03*
X155250000Y-83652500D03*
X152710000Y-82382500D03*
X155250000Y-81112500D03*
X152710000Y-79842500D03*
%TD*%
D19*
%TO.C,H4*%
X166000000Y-97500000D03*
%TD*%
%TO.C,H2*%
X166000000Y-72500000D03*
%TD*%
D14*
%TO.C,R3*%
X134237500Y-82300000D03*
X136062500Y-82300000D03*
%TD*%
D19*
%TO.C,H3*%
X116000000Y-97500000D03*
%TD*%
D21*
%TO.C,J0*%
X120250000Y-78897500D03*
X120250000Y-90327500D03*
D22*
X126600000Y-80167500D03*
D23*
X129140000Y-81437500D03*
X126600000Y-82707500D03*
X129140000Y-83977500D03*
X126600000Y-85247500D03*
X129140000Y-86517500D03*
X126600000Y-87787500D03*
X129140000Y-89057500D03*
%TD*%
%LPD*%
M02*
