%TF.GenerationSoftware,KiCad,Pcbnew,8.0.3*%
%TF.CreationDate,2024-06-22T22:44:29-05:00*%
%TF.ProjectId,RS485_breakout,52533438-355f-4627-9265-616b6f75742e,rev?*%
%TF.SameCoordinates,Original*%
%TF.FileFunction,Soldermask,Bot*%
%TF.FilePolarity,Negative*%
%FSLAX46Y46*%
G04 Gerber Fmt 4.6, Leading zero omitted, Abs format (unit mm)*
G04 Created by KiCad (PCBNEW 8.0.3) date 2024-06-22 22:44:29*
%MOMM*%
%LPD*%
G01*
G04 APERTURE LIST*
%ADD10R,1.700000X1.700000*%
%ADD11O,1.700000X1.700000*%
%ADD12C,5.700000*%
%ADD13C,3.200000*%
%ADD14R,1.500000X1.500000*%
%ADD15C,1.500000*%
G04 APERTURE END LIST*
D10*
%TO.C,J2*%
X132080000Y-71000000D03*
D11*
X134620000Y-71000000D03*
X137160000Y-71000000D03*
X139700000Y-71000000D03*
X142240000Y-71000000D03*
X144780000Y-71000000D03*
%TD*%
D10*
%TO.C,J3*%
X129540000Y-99060000D03*
D11*
X132080000Y-99060000D03*
X134620000Y-99060000D03*
X137160000Y-99060000D03*
X139700000Y-99060000D03*
X142240000Y-99060000D03*
X144780000Y-99060000D03*
X147320000Y-99060000D03*
X149860000Y-99060000D03*
X152400000Y-99060000D03*
X154940000Y-99060000D03*
%TD*%
D12*
%TO.C,H1*%
X115900000Y-72500000D03*
%TD*%
D13*
%TO.C,J1*%
X161600000Y-90002500D03*
X161600000Y-78572500D03*
D14*
X155250000Y-88732500D03*
D15*
X152710000Y-87462500D03*
X155250000Y-86192500D03*
X152710000Y-84922500D03*
X155250000Y-83652500D03*
X152710000Y-82382500D03*
X155250000Y-81112500D03*
X152710000Y-79842500D03*
%TD*%
D12*
%TO.C,H4*%
X166000000Y-97500000D03*
%TD*%
%TO.C,H2*%
X166000000Y-72500000D03*
%TD*%
%TO.C,H3*%
X116000000Y-97500000D03*
%TD*%
D13*
%TO.C,J0*%
X120250000Y-78897500D03*
X120250000Y-90327500D03*
D14*
X126600000Y-80167500D03*
D15*
X129140000Y-81437500D03*
X126600000Y-82707500D03*
X129140000Y-83977500D03*
X126600000Y-85247500D03*
X129140000Y-86517500D03*
X126600000Y-87787500D03*
X129140000Y-89057500D03*
%TD*%
M02*
