%TF.GenerationSoftware,KiCad,Pcbnew,8.0.3*%
%TF.CreationDate,2024-06-22T22:44:29-05:00*%
%TF.ProjectId,RS485_breakout,52533438-355f-4627-9265-616b6f75742e,rev?*%
%TF.SameCoordinates,Original*%
%TF.FileFunction,Copper,L2,Bot*%
%TF.FilePolarity,Positive*%
%FSLAX46Y46*%
G04 Gerber Fmt 4.6, Leading zero omitted, Abs format (unit mm)*
G04 Created by KiCad (PCBNEW 8.0.3) date 2024-06-22 22:44:29*
%MOMM*%
%LPD*%
G01*
G04 APERTURE LIST*
%TA.AperFunction,ComponentPad*%
%ADD10R,1.700000X1.700000*%
%TD*%
%TA.AperFunction,ComponentPad*%
%ADD11O,1.700000X1.700000*%
%TD*%
%TA.AperFunction,ComponentPad*%
%ADD12C,5.700000*%
%TD*%
%TA.AperFunction,ComponentPad*%
%ADD13R,1.500000X1.500000*%
%TD*%
%TA.AperFunction,ComponentPad*%
%ADD14C,1.500000*%
%TD*%
%TA.AperFunction,ViaPad*%
%ADD15C,0.600000*%
%TD*%
%TA.AperFunction,ViaPad*%
%ADD16C,0.800000*%
%TD*%
%TA.AperFunction,Conductor*%
%ADD17C,0.500000*%
%TD*%
%TA.AperFunction,Conductor*%
%ADD18C,0.200000*%
%TD*%
G04 APERTURE END LIST*
D10*
%TO.P,J2,1,Pin_1*%
%TO.N,/A0*%
X132080000Y-71000000D03*
D11*
%TO.P,J2,2,Pin_2*%
%TO.N,/B0*%
X134620000Y-71000000D03*
%TO.P,J2,3,Pin_3*%
%TO.N,GND*%
X137160000Y-71000000D03*
%TO.P,J2,4,Pin_4*%
%TO.N,/A1*%
X139700000Y-71000000D03*
%TO.P,J2,5,Pin_5*%
%TO.N,/B1*%
X142240000Y-71000000D03*
%TO.P,J2,6,Pin_6*%
%TO.N,GND*%
X144780000Y-71000000D03*
%TD*%
D10*
%TO.P,J3,1,Pin_1*%
%TO.N,+BAT1*%
X129540000Y-99060000D03*
D11*
%TO.P,J3,2,Pin_2*%
%TO.N,+BAT2*%
X132080000Y-99060000D03*
%TO.P,J3,3,Pin_3*%
%TO.N,+3V3*%
X134620000Y-99060000D03*
%TO.P,J3,4,Pin_4*%
%TO.N,/RX0*%
X137160000Y-99060000D03*
%TO.P,J3,5,Pin_5*%
%TO.N,/TXEN0*%
X139700000Y-99060000D03*
%TO.P,J3,6,Pin_6*%
%TO.N,/TX0*%
X142240000Y-99060000D03*
%TO.P,J3,7,Pin_7*%
%TO.N,/RX1*%
X144780000Y-99060000D03*
%TO.P,J3,8,Pin_8*%
%TO.N,/TXEN1*%
X147320000Y-99060000D03*
%TO.P,J3,9,Pin_9*%
%TO.N,/TX1*%
X149860000Y-99060000D03*
%TO.P,J3,10,Pin_10*%
%TO.N,GND*%
X152400000Y-99060000D03*
%TO.P,J3,11,Pin_11*%
%TO.N,GND2*%
X154940000Y-99060000D03*
%TD*%
D12*
%TO.P,H1,1,1*%
%TO.N,GND*%
X115900000Y-72500000D03*
%TD*%
D13*
%TO.P,J1,1*%
%TO.N,GND2*%
X155250000Y-88732500D03*
D14*
%TO.P,J1,2*%
%TO.N,+BAT1*%
X152710000Y-87462500D03*
%TO.P,J1,3*%
%TO.N,GND*%
X155250000Y-86192500D03*
%TO.P,J1,4*%
%TO.N,/B1*%
X152710000Y-84922500D03*
%TO.P,J1,5*%
%TO.N,/A1*%
X155250000Y-83652500D03*
%TO.P,J1,6*%
%TO.N,+BAT2*%
X152710000Y-82382500D03*
%TO.P,J1,7*%
%TO.N,GND2*%
X155250000Y-81112500D03*
%TO.P,J1,8*%
%TO.N,+BAT1*%
X152710000Y-79842500D03*
%TD*%
D12*
%TO.P,H4,1,1*%
%TO.N,GND*%
X166000000Y-97500000D03*
%TD*%
%TO.P,H2,1,1*%
%TO.N,GND*%
X166000000Y-72500000D03*
%TD*%
%TO.P,H3,1,1*%
%TO.N,GND*%
X116000000Y-97500000D03*
%TD*%
D13*
%TO.P,J0,1*%
%TO.N,GND2*%
X126600000Y-80167500D03*
D14*
%TO.P,J0,2*%
%TO.N,+BAT1*%
X129140000Y-81437500D03*
%TO.P,J0,3*%
%TO.N,GND*%
X126600000Y-82707500D03*
%TO.P,J0,4*%
%TO.N,/B0*%
X129140000Y-83977500D03*
%TO.P,J0,5*%
%TO.N,/A0*%
X126600000Y-85247500D03*
%TO.P,J0,6*%
%TO.N,+BAT2*%
X129140000Y-86517500D03*
%TO.P,J0,7*%
%TO.N,GND2*%
X126600000Y-87787500D03*
%TO.P,J0,8*%
%TO.N,+BAT1*%
X129140000Y-89057500D03*
%TD*%
D15*
%TO.N,GND*%
X115600000Y-82800000D03*
X147990000Y-74210000D03*
X166200000Y-86200000D03*
X150200000Y-86200000D03*
X135800000Y-85847500D03*
X137200000Y-74000000D03*
X150600000Y-77800000D03*
X135600000Y-84600000D03*
X131000000Y-74200000D03*
X150200000Y-81000000D03*
X131092500Y-82707500D03*
%TO.N,/B0*%
X137400000Y-79800000D03*
X137600000Y-89200000D03*
X137680515Y-78119485D03*
X132560000Y-83977500D03*
%TO.N,/B1*%
X148800000Y-84922500D03*
X143500000Y-79300000D03*
%TO.N,/A1*%
X149000000Y-88200000D03*
X149400000Y-83600000D03*
X144200000Y-81200000D03*
%TO.N,+3V3*%
X135600000Y-96000000D03*
X151200000Y-82200000D03*
D16*
X134600000Y-96000000D03*
D15*
X148400000Y-76000000D03*
X149600000Y-90400000D03*
X134400000Y-76000000D03*
D16*
%TO.N,GND2*%
X157000000Y-94800000D03*
X157000000Y-81200000D03*
X125400000Y-96740000D03*
%TO.N,+BAT2*%
X124200000Y-87400000D03*
X124200000Y-97400000D03*
X158200000Y-95400000D03*
X158200000Y-82400000D03*
%TO.N,+BAT1*%
X159200000Y-87400000D03*
X129540000Y-91600000D03*
X123200000Y-91600000D03*
X158200000Y-75200000D03*
X123400000Y-75200000D03*
X152800000Y-75200000D03*
X123200000Y-99000000D03*
X129200000Y-75200000D03*
%TD*%
D17*
%TO.N,+BAT2*%
X132080000Y-97670000D02*
X132000000Y-97590000D01*
X132080000Y-99060000D02*
X132080000Y-97670000D01*
X132000000Y-97590000D02*
X156010000Y-97590000D01*
X130610000Y-97590000D02*
X132000000Y-97590000D01*
D18*
%TO.N,GND*%
X115692500Y-82707500D02*
X115600000Y-82800000D01*
X135600000Y-84600000D02*
X133707500Y-82707500D01*
X135800000Y-84800000D02*
X135600000Y-84600000D01*
X147780000Y-74000000D02*
X147990000Y-74210000D01*
X166192500Y-86192500D02*
X166200000Y-86200000D01*
X155250000Y-86192500D02*
X166192500Y-86192500D01*
X137000000Y-74200000D02*
X137200000Y-74000000D01*
X150200000Y-81000000D02*
X150200000Y-86200000D01*
X133707500Y-82707500D02*
X131092500Y-82707500D01*
X150600000Y-77800000D02*
X150600000Y-80600000D01*
X135800000Y-85847500D02*
X135800000Y-84800000D01*
X126600000Y-82707500D02*
X115692500Y-82707500D01*
X137200000Y-74000000D02*
X147780000Y-74000000D01*
X131000000Y-74200000D02*
X137000000Y-74200000D01*
X150600000Y-80600000D02*
X150200000Y-81000000D01*
%TO.N,/B0*%
X137680515Y-78119485D02*
X137680515Y-79519485D01*
X137680515Y-79519485D02*
X137400000Y-79800000D01*
X137600000Y-89200000D02*
X132560000Y-84160000D01*
%TO.N,/B1*%
X148800000Y-84922500D02*
X145877500Y-82000000D01*
X143600000Y-79400000D02*
X143500000Y-79300000D01*
X143600000Y-82000000D02*
X143600000Y-79400000D01*
X145877500Y-82000000D02*
X143600000Y-82000000D01*
%TO.N,/A1*%
X147000000Y-81200000D02*
X149400000Y-83600000D01*
X149400000Y-87800000D02*
X149000000Y-88200000D01*
X144200000Y-81200000D02*
X147000000Y-81200000D01*
X149400000Y-83600000D02*
X149400000Y-87800000D01*
D17*
%TO.N,+3V3*%
X143400000Y-96000000D02*
X148800000Y-96000000D01*
X148800000Y-96000000D02*
X151200000Y-93600000D01*
X135600000Y-96000000D02*
X143400000Y-96000000D01*
X151200000Y-90400000D02*
X151200000Y-82200000D01*
X151200000Y-93600000D02*
X151200000Y-90400000D01*
D18*
X149600000Y-90400000D02*
X151200000Y-90400000D01*
X134400000Y-76000000D02*
X148400000Y-76000000D01*
D17*
X134600000Y-96000000D02*
X135600000Y-96000000D01*
%TO.N,GND2*%
X157000000Y-94800000D02*
X154910000Y-96890000D01*
X156912500Y-81112500D02*
X157000000Y-81200000D01*
X155250000Y-81112500D02*
X156912500Y-81112500D01*
X150800000Y-96890000D02*
X125550000Y-96890000D01*
X154910000Y-96890000D02*
X150800000Y-96890000D01*
X125550000Y-96890000D02*
X125400000Y-96740000D01*
%TO.N,+BAT2*%
X156010000Y-97590000D02*
X158200000Y-95400000D01*
X158200000Y-82400000D02*
X153600000Y-82400000D01*
X130610000Y-97590000D02*
X124390000Y-97590000D01*
X125082500Y-86517500D02*
X124200000Y-87400000D01*
X124390000Y-97590000D02*
X124200000Y-97400000D01*
X129140000Y-86517500D02*
X125082500Y-86517500D01*
%TO.N,+BAT1*%
X151400000Y-75200000D02*
X152800000Y-75200000D01*
X129540000Y-91600000D02*
X123400000Y-91600000D01*
X123400000Y-75200000D02*
X129200000Y-75200000D01*
X129200000Y-75200000D02*
X151400000Y-75200000D01*
X159137500Y-87462500D02*
X159200000Y-87400000D01*
X151400000Y-75200000D02*
X158200000Y-75200000D01*
X123260000Y-99060000D02*
X123200000Y-99000000D01*
X125260000Y-99060000D02*
X123260000Y-99060000D01*
X152710000Y-87462500D02*
X159137500Y-87462500D01*
X129540000Y-99060000D02*
X125260000Y-99060000D01*
%TD*%
%TA.AperFunction,Conductor*%
%TO.N,+3V3*%
G36*
X164906813Y-69120185D02*
G01*
X164952568Y-69172989D01*
X164962512Y-69242147D01*
X164933487Y-69305703D01*
X164879368Y-69342008D01*
X164758031Y-69382892D01*
X164758028Y-69382893D01*
X164758020Y-69382896D01*
X164428300Y-69535440D01*
X164428296Y-69535442D01*
X164238730Y-69649501D01*
X164116981Y-69722755D01*
X164027332Y-69790903D01*
X163827755Y-69942617D01*
X163827745Y-69942625D01*
X163563978Y-70192479D01*
X163328772Y-70469386D01*
X163124884Y-70770098D01*
X163124878Y-70770107D01*
X162954706Y-71091086D01*
X162954700Y-71091098D01*
X162820226Y-71428603D01*
X162820221Y-71428618D01*
X162723030Y-71778670D01*
X162723024Y-71778696D01*
X162664250Y-72137200D01*
X162664248Y-72137217D01*
X162644579Y-72499997D01*
X162644579Y-72500002D01*
X162664248Y-72862782D01*
X162664250Y-72862799D01*
X162723024Y-73221303D01*
X162723030Y-73221329D01*
X162820221Y-73571381D01*
X162820226Y-73571396D01*
X162954700Y-73908901D01*
X162954706Y-73908913D01*
X163124878Y-74229892D01*
X163124884Y-74229901D01*
X163328772Y-74530613D01*
X163445287Y-74667785D01*
X163563979Y-74807521D01*
X163827746Y-75057375D01*
X164116981Y-75277245D01*
X164428292Y-75464555D01*
X164428294Y-75464556D01*
X164428296Y-75464557D01*
X164428300Y-75464559D01*
X164652484Y-75568277D01*
X164758031Y-75617108D01*
X165102330Y-75733116D01*
X165457153Y-75811218D01*
X165818341Y-75850500D01*
X165818347Y-75850500D01*
X166181653Y-75850500D01*
X166181659Y-75850500D01*
X166542847Y-75811218D01*
X166897670Y-75733116D01*
X167241969Y-75617108D01*
X167571708Y-75464555D01*
X167883019Y-75277245D01*
X168172254Y-75057375D01*
X168436021Y-74807521D01*
X168671227Y-74530614D01*
X168875117Y-74229900D01*
X169045298Y-73908905D01*
X169179775Y-73571391D01*
X169180110Y-73570184D01*
X169256020Y-73296783D01*
X169292922Y-73237453D01*
X169356042Y-73207492D01*
X169425340Y-73216413D01*
X169478814Y-73261383D01*
X169499486Y-73328124D01*
X169499500Y-73329956D01*
X169499500Y-96670043D01*
X169479815Y-96737082D01*
X169427011Y-96782837D01*
X169357853Y-96792781D01*
X169294297Y-96763756D01*
X169256523Y-96704978D01*
X169256020Y-96703217D01*
X169179776Y-96428614D01*
X169179773Y-96428603D01*
X169050113Y-96103181D01*
X169045298Y-96091095D01*
X168961065Y-95932214D01*
X168875121Y-95770107D01*
X168875119Y-95770104D01*
X168875117Y-95770100D01*
X168671227Y-95469386D01*
X168436021Y-95192479D01*
X168172254Y-94942625D01*
X168172244Y-94942617D01*
X168073802Y-94867784D01*
X167883019Y-94722755D01*
X167571708Y-94535445D01*
X167571707Y-94535444D01*
X167571703Y-94535442D01*
X167571699Y-94535440D01*
X167241979Y-94382896D01*
X167241974Y-94382894D01*
X167241969Y-94382892D01*
X167074143Y-94326344D01*
X166897669Y-94266883D01*
X166542845Y-94188781D01*
X166181660Y-94149500D01*
X166181659Y-94149500D01*
X165818341Y-94149500D01*
X165818339Y-94149500D01*
X165457154Y-94188781D01*
X165102330Y-94266883D01*
X164836178Y-94356560D01*
X164758031Y-94382892D01*
X164758028Y-94382893D01*
X164758020Y-94382896D01*
X164428300Y-94535440D01*
X164428296Y-94535442D01*
X164294656Y-94615851D01*
X164116981Y-94722755D01*
X164027332Y-94790903D01*
X163827755Y-94942617D01*
X163827745Y-94942625D01*
X163563978Y-95192479D01*
X163328772Y-95469386D01*
X163124884Y-95770098D01*
X163124878Y-95770107D01*
X162954706Y-96091086D01*
X162954700Y-96091098D01*
X162820226Y-96428603D01*
X162820221Y-96428618D01*
X162723030Y-96778670D01*
X162723024Y-96778696D01*
X162664250Y-97137200D01*
X162664248Y-97137217D01*
X162644579Y-97499997D01*
X162644579Y-97500002D01*
X162664248Y-97862782D01*
X162664250Y-97862799D01*
X162723024Y-98221303D01*
X162723030Y-98221329D01*
X162820221Y-98571381D01*
X162820226Y-98571396D01*
X162954700Y-98908901D01*
X162954706Y-98908913D01*
X163124878Y-99229892D01*
X163124881Y-99229897D01*
X163124883Y-99229900D01*
X163169299Y-99295408D01*
X163328772Y-99530613D01*
X163511589Y-99745842D01*
X163563979Y-99807521D01*
X163827746Y-100057375D01*
X164116981Y-100277245D01*
X164428292Y-100464555D01*
X164428294Y-100464556D01*
X164428296Y-100464557D01*
X164428300Y-100464559D01*
X164688369Y-100584879D01*
X164758031Y-100617108D01*
X165102330Y-100733116D01*
X165199020Y-100754399D01*
X165260261Y-100788035D01*
X165293595Y-100849440D01*
X165288439Y-100919119D01*
X165246430Y-100974950D01*
X165180906Y-100999205D01*
X165172364Y-100999500D01*
X116827636Y-100999500D01*
X116760597Y-100979815D01*
X116714842Y-100927011D01*
X116704898Y-100857853D01*
X116733923Y-100794297D01*
X116792701Y-100756523D01*
X116800980Y-100754399D01*
X116821455Y-100749892D01*
X116897670Y-100733116D01*
X117241969Y-100617108D01*
X117571708Y-100464555D01*
X117883019Y-100277245D01*
X118172254Y-100057375D01*
X118436021Y-99807521D01*
X118671227Y-99530614D01*
X118875117Y-99229900D01*
X118997002Y-99000000D01*
X122294540Y-99000000D01*
X122314326Y-99188256D01*
X122314327Y-99188259D01*
X122372818Y-99368277D01*
X122372821Y-99368284D01*
X122467467Y-99532216D01*
X122555520Y-99630008D01*
X122594129Y-99672888D01*
X122747265Y-99784148D01*
X122747270Y-99784151D01*
X122920192Y-99861142D01*
X122920197Y-99861144D01*
X123105354Y-99900500D01*
X123105355Y-99900500D01*
X123294644Y-99900500D01*
X123294646Y-99900500D01*
X123479803Y-99861144D01*
X123524825Y-99841098D01*
X123569471Y-99821221D01*
X123619907Y-99810500D01*
X125186082Y-99810500D01*
X128065501Y-99810500D01*
X128132540Y-99830185D01*
X128178295Y-99882989D01*
X128189501Y-99934500D01*
X128189501Y-99957876D01*
X128195908Y-100017483D01*
X128246202Y-100152328D01*
X128246206Y-100152335D01*
X128332452Y-100267544D01*
X128332455Y-100267547D01*
X128447664Y-100353793D01*
X128447671Y-100353797D01*
X128582517Y-100404091D01*
X128582516Y-100404091D01*
X128589444Y-100404835D01*
X128642127Y-100410500D01*
X130437872Y-100410499D01*
X130497483Y-100404091D01*
X130632331Y-100353796D01*
X130747546Y-100267546D01*
X130833796Y-100152331D01*
X130882810Y-100020916D01*
X130924681Y-99964984D01*
X130990145Y-99940566D01*
X131058418Y-99955417D01*
X131086673Y-99976569D01*
X131208599Y-100098495D01*
X131305384Y-100166265D01*
X131402165Y-100234032D01*
X131402167Y-100234033D01*
X131402170Y-100234035D01*
X131616337Y-100333903D01*
X131844592Y-100395063D01*
X132021034Y-100410500D01*
X132079999Y-100415659D01*
X132080000Y-100415659D01*
X132080001Y-100415659D01*
X132138966Y-100410500D01*
X132315408Y-100395063D01*
X132543663Y-100333903D01*
X132757830Y-100234035D01*
X132951401Y-100098495D01*
X133118495Y-99931401D01*
X133248730Y-99745405D01*
X133303307Y-99701781D01*
X133372805Y-99694587D01*
X133435160Y-99726110D01*
X133451879Y-99745405D01*
X133581890Y-99931078D01*
X133748917Y-100098105D01*
X133942421Y-100233600D01*
X134156507Y-100333429D01*
X134156516Y-100333433D01*
X134370000Y-100390634D01*
X134370000Y-99493012D01*
X134427007Y-99525925D01*
X134554174Y-99560000D01*
X134685826Y-99560000D01*
X134812993Y-99525925D01*
X134870000Y-99493012D01*
X134870000Y-100390633D01*
X135083483Y-100333433D01*
X135083492Y-100333429D01*
X135297578Y-100233600D01*
X135491082Y-100098105D01*
X135658105Y-99931082D01*
X135788119Y-99745405D01*
X135842696Y-99701781D01*
X135912195Y-99694588D01*
X135974549Y-99726110D01*
X135991269Y-99745405D01*
X136121505Y-99931401D01*
X136288599Y-100098495D01*
X136385384Y-100166265D01*
X136482165Y-100234032D01*
X136482167Y-100234033D01*
X136482170Y-100234035D01*
X136696337Y-100333903D01*
X136924592Y-100395063D01*
X137101034Y-100410500D01*
X137159999Y-100415659D01*
X137160000Y-100415659D01*
X137160001Y-100415659D01*
X137218966Y-100410500D01*
X137395408Y-100395063D01*
X137623663Y-100333903D01*
X137837830Y-100234035D01*
X138031401Y-100098495D01*
X138198495Y-99931401D01*
X138328425Y-99745842D01*
X138383002Y-99702217D01*
X138452500Y-99695023D01*
X138514855Y-99726546D01*
X138531575Y-99745842D01*
X138661500Y-99931395D01*
X138661505Y-99931401D01*
X138828599Y-100098495D01*
X138925384Y-100166265D01*
X139022165Y-100234032D01*
X139022167Y-100234033D01*
X139022170Y-100234035D01*
X139236337Y-100333903D01*
X139464592Y-100395063D01*
X139641034Y-100410500D01*
X139699999Y-100415659D01*
X139700000Y-100415659D01*
X139700001Y-100415659D01*
X139758966Y-100410500D01*
X139935408Y-100395063D01*
X140163663Y-100333903D01*
X140377830Y-100234035D01*
X140571401Y-100098495D01*
X140738495Y-99931401D01*
X140868425Y-99745842D01*
X140923002Y-99702217D01*
X140992500Y-99695023D01*
X141054855Y-99726546D01*
X141071575Y-99745842D01*
X141201500Y-99931395D01*
X141201505Y-99931401D01*
X141368599Y-100098495D01*
X141465384Y-100166265D01*
X141562165Y-100234032D01*
X141562167Y-100234033D01*
X141562170Y-100234035D01*
X141776337Y-100333903D01*
X142004592Y-100395063D01*
X142181034Y-100410500D01*
X142239999Y-100415659D01*
X142240000Y-100415659D01*
X142240001Y-100415659D01*
X142298966Y-100410500D01*
X142475408Y-100395063D01*
X142703663Y-100333903D01*
X142917830Y-100234035D01*
X143111401Y-100098495D01*
X143278495Y-99931401D01*
X143408425Y-99745842D01*
X143463002Y-99702217D01*
X143532500Y-99695023D01*
X143594855Y-99726546D01*
X143611575Y-99745842D01*
X143741500Y-99931395D01*
X143741505Y-99931401D01*
X143908599Y-100098495D01*
X144005384Y-100166265D01*
X144102165Y-100234032D01*
X144102167Y-100234033D01*
X144102170Y-100234035D01*
X144316337Y-100333903D01*
X144544592Y-100395063D01*
X144721034Y-100410500D01*
X144779999Y-100415659D01*
X144780000Y-100415659D01*
X144780001Y-100415659D01*
X144838966Y-100410500D01*
X145015408Y-100395063D01*
X145243663Y-100333903D01*
X145457830Y-100234035D01*
X145651401Y-100098495D01*
X145818495Y-99931401D01*
X145948425Y-99745842D01*
X146003002Y-99702217D01*
X146072500Y-99695023D01*
X146134855Y-99726546D01*
X146151575Y-99745842D01*
X146281500Y-99931395D01*
X146281505Y-99931401D01*
X146448599Y-100098495D01*
X146545384Y-100166265D01*
X146642165Y-100234032D01*
X146642167Y-100234033D01*
X146642170Y-100234035D01*
X146856337Y-100333903D01*
X147084592Y-100395063D01*
X147261034Y-100410500D01*
X147319999Y-100415659D01*
X147320000Y-100415659D01*
X147320001Y-100415659D01*
X147378966Y-100410500D01*
X147555408Y-100395063D01*
X147783663Y-100333903D01*
X147997830Y-100234035D01*
X148191401Y-100098495D01*
X148358495Y-99931401D01*
X148488425Y-99745842D01*
X148543002Y-99702217D01*
X148612500Y-99695023D01*
X148674855Y-99726546D01*
X148691575Y-99745842D01*
X148821500Y-99931395D01*
X148821505Y-99931401D01*
X148988599Y-100098495D01*
X149085384Y-100166265D01*
X149182165Y-100234032D01*
X149182167Y-100234033D01*
X149182170Y-100234035D01*
X149396337Y-100333903D01*
X149624592Y-100395063D01*
X149801034Y-100410500D01*
X149859999Y-100415659D01*
X149860000Y-100415659D01*
X149860001Y-100415659D01*
X149918966Y-100410500D01*
X150095408Y-100395063D01*
X150323663Y-100333903D01*
X150537830Y-100234035D01*
X150731401Y-100098495D01*
X150898495Y-99931401D01*
X151028425Y-99745842D01*
X151083002Y-99702217D01*
X151152500Y-99695023D01*
X151214855Y-99726546D01*
X151231575Y-99745842D01*
X151361500Y-99931395D01*
X151361505Y-99931401D01*
X151528599Y-100098495D01*
X151625384Y-100166265D01*
X151722165Y-100234032D01*
X151722167Y-100234033D01*
X151722170Y-100234035D01*
X151936337Y-100333903D01*
X152164592Y-100395063D01*
X152341034Y-100410500D01*
X152399999Y-100415659D01*
X152400000Y-100415659D01*
X152400001Y-100415659D01*
X152458966Y-100410500D01*
X152635408Y-100395063D01*
X152863663Y-100333903D01*
X153077830Y-100234035D01*
X153271401Y-100098495D01*
X153438495Y-99931401D01*
X153568425Y-99745842D01*
X153623002Y-99702217D01*
X153692500Y-99695023D01*
X153754855Y-99726546D01*
X153771575Y-99745842D01*
X153901500Y-99931395D01*
X153901505Y-99931401D01*
X154068599Y-100098495D01*
X154165384Y-100166265D01*
X154262165Y-100234032D01*
X154262167Y-100234033D01*
X154262170Y-100234035D01*
X154476337Y-100333903D01*
X154704592Y-100395063D01*
X154881034Y-100410500D01*
X154939999Y-100415659D01*
X154940000Y-100415659D01*
X154940001Y-100415659D01*
X154998966Y-100410500D01*
X155175408Y-100395063D01*
X155403663Y-100333903D01*
X155617830Y-100234035D01*
X155811401Y-100098495D01*
X155978495Y-99931401D01*
X156114035Y-99737830D01*
X156213903Y-99523663D01*
X156275063Y-99295408D01*
X156295659Y-99060000D01*
X156275063Y-98824592D01*
X156213903Y-98596337D01*
X156159815Y-98480347D01*
X156149324Y-98411272D01*
X156177843Y-98347488D01*
X156224746Y-98313382D01*
X156228903Y-98311659D01*
X156228913Y-98311658D01*
X156365495Y-98255084D01*
X156414729Y-98222186D01*
X156416032Y-98221316D01*
X156439071Y-98205921D01*
X156488416Y-98172952D01*
X158352771Y-96308595D01*
X158414092Y-96275112D01*
X158414448Y-96275034D01*
X158479803Y-96261144D01*
X158652730Y-96184151D01*
X158805871Y-96072888D01*
X158932533Y-95932216D01*
X159027179Y-95768284D01*
X159085674Y-95588256D01*
X159105460Y-95400000D01*
X159085674Y-95211744D01*
X159027179Y-95031716D01*
X158932533Y-94867784D01*
X158805871Y-94727112D01*
X158799873Y-94722754D01*
X158652734Y-94615851D01*
X158652729Y-94615848D01*
X158479807Y-94538857D01*
X158479802Y-94538855D01*
X158334001Y-94507865D01*
X158294646Y-94499500D01*
X158105354Y-94499500D01*
X157974959Y-94527215D01*
X157905293Y-94521899D01*
X157849560Y-94479761D01*
X157831248Y-94444240D01*
X157827180Y-94431720D01*
X157827180Y-94431719D01*
X157827179Y-94431716D01*
X157732533Y-94267784D01*
X157605871Y-94127112D01*
X157605870Y-94127111D01*
X157452734Y-94015851D01*
X157452729Y-94015848D01*
X157279807Y-93938857D01*
X157279802Y-93938855D01*
X157134001Y-93907865D01*
X157094646Y-93899500D01*
X156905354Y-93899500D01*
X156872897Y-93906398D01*
X156720197Y-93938855D01*
X156720192Y-93938857D01*
X156547270Y-94015848D01*
X156547265Y-94015851D01*
X156394129Y-94127111D01*
X156267468Y-94267783D01*
X156267466Y-94267784D01*
X156172821Y-94431715D01*
X156172819Y-94431719D01*
X156117478Y-94602041D01*
X156087228Y-94651403D01*
X154635451Y-96103181D01*
X154574128Y-96136666D01*
X154547770Y-96139500D01*
X126126258Y-96139500D01*
X126059219Y-96119815D01*
X126034109Y-96098473D01*
X126005871Y-96067112D01*
X126005864Y-96067106D01*
X125852734Y-95955851D01*
X125852729Y-95955848D01*
X125679807Y-95878857D01*
X125679802Y-95878855D01*
X125534001Y-95847865D01*
X125494646Y-95839500D01*
X125305354Y-95839500D01*
X125272897Y-95846398D01*
X125120197Y-95878855D01*
X125120192Y-95878857D01*
X124947270Y-95955848D01*
X124947265Y-95955851D01*
X124794129Y-96067111D01*
X124667466Y-96207785D01*
X124572821Y-96371715D01*
X124572819Y-96371719D01*
X124550514Y-96440368D01*
X124511076Y-96498043D01*
X124446717Y-96525241D01*
X124406803Y-96523339D01*
X124294646Y-96499500D01*
X124105354Y-96499500D01*
X124072897Y-96506398D01*
X123920197Y-96538855D01*
X123920192Y-96538857D01*
X123747270Y-96615848D01*
X123747265Y-96615851D01*
X123594129Y-96727111D01*
X123467466Y-96867785D01*
X123372821Y-97031715D01*
X123372818Y-97031722D01*
X123338541Y-97137217D01*
X123314326Y-97211744D01*
X123294540Y-97400000D01*
X123314326Y-97588256D01*
X123314327Y-97588259D01*
X123372818Y-97768277D01*
X123372820Y-97768281D01*
X123372821Y-97768284D01*
X123390833Y-97799481D01*
X123462480Y-97923579D01*
X123478952Y-97991479D01*
X123456099Y-98057506D01*
X123401177Y-98100696D01*
X123331624Y-98107337D01*
X123329368Y-98106880D01*
X123294646Y-98099500D01*
X123105354Y-98099500D01*
X123072897Y-98106398D01*
X122920197Y-98138855D01*
X122920192Y-98138857D01*
X122747270Y-98215848D01*
X122747265Y-98215851D01*
X122594129Y-98327111D01*
X122467466Y-98467785D01*
X122372821Y-98631715D01*
X122372818Y-98631722D01*
X122314327Y-98811740D01*
X122314326Y-98811744D01*
X122294540Y-99000000D01*
X118997002Y-99000000D01*
X119045298Y-98908905D01*
X119179775Y-98571391D01*
X119191273Y-98529981D01*
X119241941Y-98347488D01*
X119276973Y-98221316D01*
X119296944Y-98099500D01*
X119335749Y-97862799D01*
X119335751Y-97862782D01*
X119355421Y-97500002D01*
X119355421Y-97499997D01*
X119335751Y-97137217D01*
X119335749Y-97137200D01*
X119276975Y-96778696D01*
X119276974Y-96778695D01*
X119276973Y-96778684D01*
X119214622Y-96554115D01*
X119179778Y-96428618D01*
X119179773Y-96428603D01*
X119050113Y-96103181D01*
X119045298Y-96091095D01*
X118961065Y-95932214D01*
X118875121Y-95770107D01*
X118875119Y-95770104D01*
X118875117Y-95770100D01*
X118671227Y-95469386D01*
X118436021Y-95192479D01*
X118172254Y-94942625D01*
X118172244Y-94942617D01*
X118073802Y-94867784D01*
X117883019Y-94722755D01*
X117571708Y-94535445D01*
X117571707Y-94535444D01*
X117571703Y-94535442D01*
X117571699Y-94535440D01*
X117241979Y-94382896D01*
X117241974Y-94382894D01*
X117241969Y-94382892D01*
X117074143Y-94326344D01*
X116897669Y-94266883D01*
X116542845Y-94188781D01*
X116181660Y-94149500D01*
X116181659Y-94149500D01*
X115818341Y-94149500D01*
X115818339Y-94149500D01*
X115457154Y-94188781D01*
X115102330Y-94266883D01*
X114836178Y-94356560D01*
X114758031Y-94382892D01*
X114758028Y-94382893D01*
X114758020Y-94382896D01*
X114428300Y-94535440D01*
X114428296Y-94535442D01*
X114294656Y-94615851D01*
X114116981Y-94722755D01*
X114027332Y-94790903D01*
X113827755Y-94942617D01*
X113827745Y-94942625D01*
X113563978Y-95192479D01*
X113328772Y-95469386D01*
X113124884Y-95770098D01*
X113124878Y-95770107D01*
X112954706Y-96091086D01*
X112954700Y-96091098D01*
X112820226Y-96428603D01*
X112820223Y-96428614D01*
X112743980Y-96703217D01*
X112707078Y-96762546D01*
X112643958Y-96792507D01*
X112574660Y-96783586D01*
X112521186Y-96738616D01*
X112500514Y-96671875D01*
X112500500Y-96670043D01*
X112500500Y-90206211D01*
X118399500Y-90206211D01*
X118399500Y-90448788D01*
X118431161Y-90689285D01*
X118493947Y-90923604D01*
X118539173Y-91032789D01*
X118586776Y-91147712D01*
X118708064Y-91357789D01*
X118708066Y-91357792D01*
X118708067Y-91357793D01*
X118855733Y-91550236D01*
X118855739Y-91550243D01*
X119027256Y-91721760D01*
X119027262Y-91721765D01*
X119219711Y-91869436D01*
X119429788Y-91990724D01*
X119653900Y-92083554D01*
X119888211Y-92146338D01*
X120068586Y-92170084D01*
X120128711Y-92178000D01*
X120128712Y-92178000D01*
X120371289Y-92178000D01*
X120419388Y-92171667D01*
X120611789Y-92146338D01*
X120846100Y-92083554D01*
X121070212Y-91990724D01*
X121280289Y-91869436D01*
X121472738Y-91721765D01*
X121594503Y-91600000D01*
X122294540Y-91600000D01*
X122314326Y-91788256D01*
X122314327Y-91788259D01*
X122372818Y-91968277D01*
X122372821Y-91968284D01*
X122467467Y-92132216D01*
X122594129Y-92272888D01*
X122747265Y-92384148D01*
X122747270Y-92384151D01*
X122920192Y-92461142D01*
X122920197Y-92461144D01*
X123105354Y-92500500D01*
X123105355Y-92500500D01*
X123294644Y-92500500D01*
X123294646Y-92500500D01*
X123479803Y-92461144D01*
X123652730Y-92384151D01*
X123654776Y-92382664D01*
X123666452Y-92374182D01*
X123732258Y-92350702D01*
X123739337Y-92350500D01*
X129000663Y-92350500D01*
X129067702Y-92370185D01*
X129073548Y-92374182D01*
X129087265Y-92384148D01*
X129087270Y-92384151D01*
X129260192Y-92461142D01*
X129260197Y-92461144D01*
X129445354Y-92500500D01*
X129445355Y-92500500D01*
X129634644Y-92500500D01*
X129634646Y-92500500D01*
X129819803Y-92461144D01*
X129992730Y-92384151D01*
X130145871Y-92272888D01*
X130272533Y-92132216D01*
X130367179Y-91968284D01*
X130425674Y-91788256D01*
X130445460Y-91600000D01*
X130425674Y-91411744D01*
X130367179Y-91231716D01*
X130272533Y-91067784D01*
X130145871Y-90927112D01*
X130141043Y-90923604D01*
X129992734Y-90815851D01*
X129992729Y-90815848D01*
X129819807Y-90738857D01*
X129819802Y-90738855D01*
X129674001Y-90707865D01*
X129634646Y-90699500D01*
X129445354Y-90699500D01*
X129412897Y-90706398D01*
X129260197Y-90738855D01*
X129260192Y-90738857D01*
X129087270Y-90815848D01*
X129087265Y-90815851D01*
X129073548Y-90825818D01*
X129007742Y-90849298D01*
X129000663Y-90849500D01*
X123739337Y-90849500D01*
X123672298Y-90829815D01*
X123666452Y-90825818D01*
X123652734Y-90815851D01*
X123652729Y-90815848D01*
X123479807Y-90738857D01*
X123479802Y-90738855D01*
X123334001Y-90707865D01*
X123294646Y-90699500D01*
X123105354Y-90699500D01*
X123072897Y-90706398D01*
X122920197Y-90738855D01*
X122920192Y-90738857D01*
X122747270Y-90815848D01*
X122747265Y-90815851D01*
X122594129Y-90927111D01*
X122467466Y-91067785D01*
X122372821Y-91231715D01*
X122372818Y-91231722D01*
X122314327Y-91411740D01*
X122314326Y-91411744D01*
X122294540Y-91600000D01*
X121594503Y-91600000D01*
X121644265Y-91550238D01*
X121791936Y-91357789D01*
X121913224Y-91147712D01*
X122006054Y-90923600D01*
X122068838Y-90689289D01*
X122100500Y-90448788D01*
X122100500Y-90206212D01*
X122068838Y-89965711D01*
X122006054Y-89731400D01*
X121913224Y-89507288D01*
X121791936Y-89297211D01*
X121717344Y-89200000D01*
X121644266Y-89104763D01*
X121644260Y-89104756D01*
X121472743Y-88933239D01*
X121472736Y-88933233D01*
X121280293Y-88785567D01*
X121280292Y-88785566D01*
X121280289Y-88785564D01*
X121070212Y-88664276D01*
X121016614Y-88642075D01*
X120846104Y-88571447D01*
X120611785Y-88508661D01*
X120371289Y-88477000D01*
X120371288Y-88477000D01*
X120128712Y-88477000D01*
X120128711Y-88477000D01*
X119888214Y-88508661D01*
X119653895Y-88571447D01*
X119429794Y-88664273D01*
X119429785Y-88664277D01*
X119219706Y-88785567D01*
X119027263Y-88933233D01*
X119027256Y-88933239D01*
X118855739Y-89104756D01*
X118855733Y-89104763D01*
X118708067Y-89297206D01*
X118586777Y-89507285D01*
X118586773Y-89507294D01*
X118493947Y-89731395D01*
X118431161Y-89965714D01*
X118399500Y-90206211D01*
X112500500Y-90206211D01*
X112500500Y-82799996D01*
X114794435Y-82799996D01*
X114794435Y-82800003D01*
X114814630Y-82979249D01*
X114814631Y-82979254D01*
X114874211Y-83149523D01*
X114944348Y-83261144D01*
X114970184Y-83302262D01*
X115097738Y-83429816D01*
X115161057Y-83469602D01*
X115206207Y-83497972D01*
X115250478Y-83525789D01*
X115418650Y-83584635D01*
X115420745Y-83585368D01*
X115420750Y-83585369D01*
X115599996Y-83605565D01*
X115600000Y-83605565D01*
X115600004Y-83605565D01*
X115779249Y-83585369D01*
X115779252Y-83585368D01*
X115779255Y-83585368D01*
X115949522Y-83525789D01*
X116102262Y-83429816D01*
X116187759Y-83344319D01*
X116249082Y-83310834D01*
X116275440Y-83308000D01*
X125429345Y-83308000D01*
X125496384Y-83327685D01*
X125530917Y-83360873D01*
X125638402Y-83514377D01*
X125793123Y-83669098D01*
X125972360Y-83794601D01*
X125972361Y-83794602D01*
X126123583Y-83865118D01*
X126176022Y-83911290D01*
X126195174Y-83978484D01*
X126174958Y-84045365D01*
X126123583Y-84089882D01*
X125972361Y-84160398D01*
X125972357Y-84160400D01*
X125793121Y-84285902D01*
X125638402Y-84440621D01*
X125512900Y-84619857D01*
X125512898Y-84619861D01*
X125420426Y-84818168D01*
X125420422Y-84818177D01*
X125363793Y-85029520D01*
X125363793Y-85029524D01*
X125344723Y-85247497D01*
X125344723Y-85247502D01*
X125346868Y-85272021D01*
X125363793Y-85465477D01*
X125392420Y-85572315D01*
X125402761Y-85610906D01*
X125401098Y-85680756D01*
X125361936Y-85738619D01*
X125297707Y-85766123D01*
X125282986Y-85767000D01*
X125008580Y-85767000D01*
X124863592Y-85795840D01*
X124863582Y-85795843D01*
X124727011Y-85852412D01*
X124726998Y-85852419D01*
X124604084Y-85934548D01*
X124604080Y-85934551D01*
X124047229Y-86491402D01*
X123985906Y-86524887D01*
X123985330Y-86525011D01*
X123920196Y-86538856D01*
X123920192Y-86538857D01*
X123747270Y-86615848D01*
X123747265Y-86615851D01*
X123594129Y-86727111D01*
X123467466Y-86867785D01*
X123372821Y-87031715D01*
X123372818Y-87031722D01*
X123335967Y-87145139D01*
X123314326Y-87211744D01*
X123294540Y-87400000D01*
X123314326Y-87588256D01*
X123314327Y-87588259D01*
X123372818Y-87768277D01*
X123372821Y-87768284D01*
X123467467Y-87932216D01*
X123547179Y-88020745D01*
X123594129Y-88072888D01*
X123747265Y-88184148D01*
X123747270Y-88184151D01*
X123920192Y-88261142D01*
X123920197Y-88261144D01*
X124105354Y-88300500D01*
X124105355Y-88300500D01*
X124294644Y-88300500D01*
X124294646Y-88300500D01*
X124479803Y-88261144D01*
X124652730Y-88184151D01*
X124805871Y-88072888D01*
X124932533Y-87932216D01*
X125027179Y-87768284D01*
X125082522Y-87597955D01*
X125112769Y-87548597D01*
X125148967Y-87512399D01*
X125210288Y-87478916D01*
X125279980Y-87483900D01*
X125335913Y-87525772D01*
X125360330Y-87591236D01*
X125360174Y-87610889D01*
X125344723Y-87787497D01*
X125344723Y-87787502D01*
X125350233Y-87850478D01*
X125357383Y-87932214D01*
X125363793Y-88005475D01*
X125363793Y-88005479D01*
X125420422Y-88216822D01*
X125420424Y-88216826D01*
X125420425Y-88216830D01*
X125452441Y-88285489D01*
X125512897Y-88415138D01*
X125523206Y-88429861D01*
X125638402Y-88594377D01*
X125793123Y-88749098D01*
X125972361Y-88874602D01*
X126170670Y-88967075D01*
X126382023Y-89023707D01*
X126564926Y-89039708D01*
X126599998Y-89042777D01*
X126600000Y-89042777D01*
X126600002Y-89042777D01*
X126628254Y-89040305D01*
X126817977Y-89023707D01*
X127029330Y-88967075D01*
X127227639Y-88874602D01*
X127406877Y-88749098D01*
X127561598Y-88594377D01*
X127687102Y-88415139D01*
X127779575Y-88216830D01*
X127836207Y-88005477D01*
X127855277Y-87787500D01*
X127836207Y-87569523D01*
X127797239Y-87424092D01*
X127798902Y-87354244D01*
X127838064Y-87296381D01*
X127902293Y-87268877D01*
X127917014Y-87268000D01*
X128074376Y-87268000D01*
X128141415Y-87287685D01*
X128175949Y-87320874D01*
X128178402Y-87324377D01*
X128333123Y-87479098D01*
X128512360Y-87604601D01*
X128512361Y-87604602D01*
X128663583Y-87675118D01*
X128716022Y-87721290D01*
X128735174Y-87788484D01*
X128714958Y-87855365D01*
X128663583Y-87899882D01*
X128512361Y-87970398D01*
X128512357Y-87970400D01*
X128333121Y-88095902D01*
X128178402Y-88250621D01*
X128052900Y-88429857D01*
X128052898Y-88429861D01*
X127960426Y-88628168D01*
X127960422Y-88628177D01*
X127903793Y-88839520D01*
X127903793Y-88839524D01*
X127887680Y-89023706D01*
X127884723Y-89057500D01*
X127901495Y-89249215D01*
X127903793Y-89275475D01*
X127903793Y-89275479D01*
X127960422Y-89486822D01*
X127960424Y-89486826D01*
X127960425Y-89486830D01*
X127980731Y-89530376D01*
X128052897Y-89685138D01*
X128052898Y-89685139D01*
X128178402Y-89864377D01*
X128333123Y-90019098D01*
X128512361Y-90144602D01*
X128710670Y-90237075D01*
X128922023Y-90293707D01*
X129104926Y-90309708D01*
X129139998Y-90312777D01*
X129140000Y-90312777D01*
X129140002Y-90312777D01*
X129168254Y-90310305D01*
X129357977Y-90293707D01*
X129569330Y-90237075D01*
X129767639Y-90144602D01*
X129946877Y-90019098D01*
X130101598Y-89864377D01*
X130227102Y-89685139D01*
X130319575Y-89486830D01*
X130376207Y-89275477D01*
X130395277Y-89057500D01*
X130392320Y-89023706D01*
X130390733Y-89005565D01*
X130376207Y-88839523D01*
X130319575Y-88628170D01*
X130227102Y-88429862D01*
X130227100Y-88429859D01*
X130227099Y-88429857D01*
X130101599Y-88250624D01*
X130034636Y-88183661D01*
X129946877Y-88095902D01*
X129767639Y-87970398D01*
X129616414Y-87899881D01*
X129563977Y-87853710D01*
X129544825Y-87786516D01*
X129565041Y-87719635D01*
X129616414Y-87675118D01*
X129767639Y-87604602D01*
X129946877Y-87479098D01*
X130101598Y-87324377D01*
X130227102Y-87145139D01*
X130319575Y-86946830D01*
X130376207Y-86735477D01*
X130395277Y-86517500D01*
X130376207Y-86299523D01*
X130319575Y-86088170D01*
X130227102Y-85889862D01*
X130227100Y-85889859D01*
X130227099Y-85889857D01*
X130101599Y-85710624D01*
X130027441Y-85636466D01*
X129946877Y-85555902D01*
X129767639Y-85430398D01*
X129616414Y-85359881D01*
X129563977Y-85313710D01*
X129544825Y-85246516D01*
X129565041Y-85179635D01*
X129616414Y-85135118D01*
X129767639Y-85064602D01*
X129946877Y-84939098D01*
X130101598Y-84784377D01*
X130227102Y-84605139D01*
X130319575Y-84406830D01*
X130376207Y-84195477D01*
X130395277Y-83977500D01*
X130376207Y-83759523D01*
X130329789Y-83586290D01*
X130319577Y-83548177D01*
X130319576Y-83548176D01*
X130319575Y-83548170D01*
X130227102Y-83349862D01*
X130227100Y-83349859D01*
X130227099Y-83349857D01*
X130101599Y-83170624D01*
X130067797Y-83136822D01*
X129946877Y-83015902D01*
X129767639Y-82890398D01*
X129616414Y-82819881D01*
X129563977Y-82773710D01*
X129545104Y-82707496D01*
X130286935Y-82707496D01*
X130286935Y-82707503D01*
X130307130Y-82886749D01*
X130307131Y-82886754D01*
X130366711Y-83057023D01*
X130448268Y-83186819D01*
X130462684Y-83209762D01*
X130590238Y-83337316D01*
X130680580Y-83394082D01*
X130737450Y-83429816D01*
X130742978Y-83433289D01*
X130913245Y-83492868D01*
X130913250Y-83492869D01*
X131092496Y-83513065D01*
X131092500Y-83513065D01*
X131092504Y-83513065D01*
X131271749Y-83492869D01*
X131271752Y-83492868D01*
X131271755Y-83492868D01*
X131442022Y-83433289D01*
X131594762Y-83337316D01*
X131594767Y-83337310D01*
X131597597Y-83335055D01*
X131599775Y-83334165D01*
X131600658Y-83333611D01*
X131600755Y-83333765D01*
X131662283Y-83308645D01*
X131674912Y-83308000D01*
X131810905Y-83308000D01*
X131877944Y-83327685D01*
X131923699Y-83380489D01*
X131933643Y-83449647D01*
X131915899Y-83497972D01*
X131834211Y-83627976D01*
X131774631Y-83798245D01*
X131774630Y-83798250D01*
X131754435Y-83977496D01*
X131754435Y-83977503D01*
X131774630Y-84156749D01*
X131774631Y-84156754D01*
X131834211Y-84327023D01*
X131884358Y-84406831D01*
X131930184Y-84479762D01*
X132057738Y-84607316D01*
X132077705Y-84619862D01*
X132210477Y-84703289D01*
X132250794Y-84717396D01*
X132297522Y-84746757D01*
X136769298Y-89218533D01*
X136802783Y-89279856D01*
X136804837Y-89292330D01*
X136814630Y-89379249D01*
X136874210Y-89549521D01*
X136899634Y-89589983D01*
X136970184Y-89702262D01*
X137097738Y-89829816D01*
X137250478Y-89925789D01*
X137364569Y-89965711D01*
X137420745Y-89985368D01*
X137420750Y-89985369D01*
X137599996Y-90005565D01*
X137600000Y-90005565D01*
X137600004Y-90005565D01*
X137779249Y-89985369D01*
X137779252Y-89985368D01*
X137779255Y-89985368D01*
X137949522Y-89925789D01*
X138102262Y-89829816D01*
X138229816Y-89702262D01*
X138325789Y-89549522D01*
X138385368Y-89379255D01*
X138395162Y-89292330D01*
X138405565Y-89200003D01*
X138405565Y-89199996D01*
X138385369Y-89020750D01*
X138385368Y-89020745D01*
X138325788Y-88850476D01*
X138281351Y-88779756D01*
X138229816Y-88697738D01*
X138102262Y-88570184D01*
X138069377Y-88549521D01*
X137949521Y-88474210D01*
X137779249Y-88414630D01*
X137692330Y-88404837D01*
X137627916Y-88377770D01*
X137618533Y-88369298D01*
X136046830Y-86797595D01*
X136013345Y-86736272D01*
X136018329Y-86666580D01*
X136060201Y-86610647D01*
X136093557Y-86592872D01*
X136149522Y-86573289D01*
X136302262Y-86477316D01*
X136429816Y-86349762D01*
X136525789Y-86197022D01*
X136585368Y-86026755D01*
X136591253Y-85974523D01*
X136605565Y-85847503D01*
X136605565Y-85847496D01*
X136585369Y-85668250D01*
X136585368Y-85668245D01*
X136552038Y-85572994D01*
X136525789Y-85497978D01*
X136429816Y-85345238D01*
X136429814Y-85345236D01*
X136429813Y-85345234D01*
X136427550Y-85342396D01*
X136426659Y-85340215D01*
X136426111Y-85339342D01*
X136426264Y-85339245D01*
X136401144Y-85277709D01*
X136400500Y-85265087D01*
X136400500Y-84889060D01*
X136400501Y-84889047D01*
X136400501Y-84720940D01*
X136399440Y-84712881D01*
X136399924Y-84712817D01*
X136397099Y-84675129D01*
X136405565Y-84600000D01*
X136393529Y-84493177D01*
X136385369Y-84420750D01*
X136385368Y-84420745D01*
X136352573Y-84327022D01*
X136325789Y-84250478D01*
X136229816Y-84097738D01*
X136102262Y-83970184D01*
X135969995Y-83887075D01*
X135949521Y-83874210D01*
X135779249Y-83814630D01*
X135692330Y-83804837D01*
X135627916Y-83777770D01*
X135618533Y-83769298D01*
X134195090Y-82345855D01*
X134195088Y-82345852D01*
X134076217Y-82226981D01*
X134076209Y-82226975D01*
X133974436Y-82168217D01*
X133974434Y-82168216D01*
X133939290Y-82147925D01*
X133939289Y-82147924D01*
X133926763Y-82144567D01*
X133786557Y-82106999D01*
X133628443Y-82106999D01*
X133620847Y-82106999D01*
X133620831Y-82107000D01*
X131674912Y-82107000D01*
X131607873Y-82087315D01*
X131597597Y-82079945D01*
X131594763Y-82077685D01*
X131594762Y-82077684D01*
X131521614Y-82031722D01*
X131442023Y-81981711D01*
X131271754Y-81922131D01*
X131271749Y-81922130D01*
X131092504Y-81901935D01*
X131092496Y-81901935D01*
X130913250Y-81922130D01*
X130913245Y-81922131D01*
X130742976Y-81981711D01*
X130590237Y-82077684D01*
X130462684Y-82205237D01*
X130366711Y-82357976D01*
X130307131Y-82528245D01*
X130307130Y-82528250D01*
X130286935Y-82707496D01*
X129545104Y-82707496D01*
X129544825Y-82706516D01*
X129565041Y-82639635D01*
X129616414Y-82595118D01*
X129767639Y-82524602D01*
X129946877Y-82399098D01*
X130101598Y-82244377D01*
X130227102Y-82065139D01*
X130319575Y-81866830D01*
X130376207Y-81655477D01*
X130395277Y-81437500D01*
X130393897Y-81421730D01*
X130385914Y-81330477D01*
X130376207Y-81219523D01*
X130319575Y-81008170D01*
X130227102Y-80809862D01*
X130227100Y-80809859D01*
X130227099Y-80809857D01*
X130101599Y-80630624D01*
X130031697Y-80560722D01*
X129946877Y-80475902D01*
X129795896Y-80370184D01*
X129767638Y-80350397D01*
X129624555Y-80283677D01*
X129569330Y-80257925D01*
X129569326Y-80257924D01*
X129569322Y-80257922D01*
X129357977Y-80201293D01*
X129140002Y-80182223D01*
X129139998Y-80182223D01*
X128994682Y-80194936D01*
X128922023Y-80201293D01*
X128922020Y-80201293D01*
X128710677Y-80257922D01*
X128710668Y-80257926D01*
X128512361Y-80350398D01*
X128512357Y-80350400D01*
X128333121Y-80475902D01*
X128178405Y-80630618D01*
X128076074Y-80776762D01*
X128021497Y-80820387D01*
X127951998Y-80827579D01*
X127889644Y-80796057D01*
X127854230Y-80735827D01*
X127850499Y-80705644D01*
X127850499Y-79799996D01*
X136594435Y-79799996D01*
X136594435Y-79800003D01*
X136614630Y-79979249D01*
X136614631Y-79979254D01*
X136674211Y-80149523D01*
X136735383Y-80246877D01*
X136770184Y-80302262D01*
X136897738Y-80429816D01*
X136961910Y-80470138D01*
X137042765Y-80520943D01*
X137050478Y-80525789D01*
X137220745Y-80585368D01*
X137220750Y-80585369D01*
X137399996Y-80605565D01*
X137400000Y-80605565D01*
X137400004Y-80605565D01*
X137579249Y-80585369D01*
X137579252Y-80585368D01*
X137579255Y-80585368D01*
X137749522Y-80525789D01*
X137902262Y-80429816D01*
X138029816Y-80302262D01*
X138125789Y-80149522D01*
X138185368Y-79979255D01*
X138201117Y-79839462D01*
X138216950Y-79791349D01*
X138237489Y-79755778D01*
X138240092Y-79751270D01*
X138281015Y-79598542D01*
X138281015Y-79440428D01*
X138281015Y-79299996D01*
X142694435Y-79299996D01*
X142694435Y-79300003D01*
X142714630Y-79479249D01*
X142714631Y-79479254D01*
X142774211Y-79649523D01*
X142870184Y-79802262D01*
X142963181Y-79895259D01*
X142996666Y-79956582D01*
X142999500Y-79982940D01*
X142999500Y-81920943D01*
X142999500Y-82079057D01*
X143039135Y-82226975D01*
X143040423Y-82231783D01*
X143040426Y-82231790D01*
X143119475Y-82368709D01*
X143119479Y-82368714D01*
X143119480Y-82368716D01*
X143231284Y-82480520D01*
X143231286Y-82480521D01*
X143231290Y-82480524D01*
X143368209Y-82559573D01*
X143368216Y-82559577D01*
X143520943Y-82600500D01*
X145577403Y-82600500D01*
X145644442Y-82620185D01*
X145665084Y-82636819D01*
X147969298Y-84941033D01*
X148002783Y-85002356D01*
X148004837Y-85014830D01*
X148014630Y-85101749D01*
X148014631Y-85101754D01*
X148014632Y-85101755D01*
X148022538Y-85124349D01*
X148074210Y-85272021D01*
X148118430Y-85342396D01*
X148170184Y-85424762D01*
X148297738Y-85552316D01*
X148330647Y-85572994D01*
X148413975Y-85625353D01*
X148450478Y-85648289D01*
X148620745Y-85707868D01*
X148689384Y-85715601D01*
X148753796Y-85742666D01*
X148793352Y-85800260D01*
X148799500Y-85838821D01*
X148799500Y-87334083D01*
X148779815Y-87401122D01*
X148727011Y-87446877D01*
X148716456Y-87451124D01*
X148650476Y-87474211D01*
X148650475Y-87474212D01*
X148497737Y-87570184D01*
X148370184Y-87697737D01*
X148274211Y-87850476D01*
X148214631Y-88020745D01*
X148214630Y-88020750D01*
X148194435Y-88199996D01*
X148194435Y-88200003D01*
X148214630Y-88379249D01*
X148214631Y-88379254D01*
X148274211Y-88549523D01*
X148332366Y-88642075D01*
X148370184Y-88702262D01*
X148497738Y-88829816D01*
X148650478Y-88925789D01*
X148820745Y-88985368D01*
X148820750Y-88985369D01*
X148999996Y-89005565D01*
X149000000Y-89005565D01*
X149000004Y-89005565D01*
X149179249Y-88985369D01*
X149179252Y-88985368D01*
X149179255Y-88985368D01*
X149349522Y-88925789D01*
X149502262Y-88829816D01*
X149629816Y-88702262D01*
X149725789Y-88549522D01*
X149785368Y-88379255D01*
X149795161Y-88292331D01*
X149822226Y-88227921D01*
X149830701Y-88218535D01*
X149880517Y-88168719D01*
X149880517Y-88168718D01*
X149880520Y-88168716D01*
X149959577Y-88031784D01*
X149996100Y-87895477D01*
X150000500Y-87879058D01*
X150000500Y-87720943D01*
X150000500Y-87121842D01*
X150020185Y-87054803D01*
X150072989Y-87009048D01*
X150138382Y-86998622D01*
X150191675Y-87004627D01*
X150199999Y-87005565D01*
X150200000Y-87005565D01*
X150200004Y-87005565D01*
X150379249Y-86985369D01*
X150379252Y-86985368D01*
X150379255Y-86985368D01*
X150549522Y-86925789D01*
X150702262Y-86829816D01*
X150829816Y-86702262D01*
X150925789Y-86549522D01*
X150985368Y-86379255D01*
X150985369Y-86379249D01*
X151005565Y-86200003D01*
X151005565Y-86199996D01*
X150985369Y-86020750D01*
X150985368Y-86020745D01*
X150981469Y-86009601D01*
X150925789Y-85850478D01*
X150923915Y-85847496D01*
X150855503Y-85738619D01*
X150829816Y-85697738D01*
X150829814Y-85697736D01*
X150829813Y-85697734D01*
X150827550Y-85694896D01*
X150826659Y-85692715D01*
X150826111Y-85691842D01*
X150826264Y-85691745D01*
X150801144Y-85630209D01*
X150800500Y-85617587D01*
X150800500Y-81582412D01*
X150820185Y-81515373D01*
X150827555Y-81505097D01*
X150829810Y-81502267D01*
X150829816Y-81502262D01*
X150925789Y-81349522D01*
X150985368Y-81179255D01*
X150995161Y-81092331D01*
X151022226Y-81027921D01*
X151030701Y-81018535D01*
X151080517Y-80968719D01*
X151080517Y-80968718D01*
X151080520Y-80968716D01*
X151159577Y-80831784D01*
X151190511Y-80716338D01*
X151200500Y-80679058D01*
X151200500Y-80520943D01*
X151200500Y-79842500D01*
X151454723Y-79842500D01*
X151465594Y-79966765D01*
X151473793Y-80060475D01*
X151473793Y-80060479D01*
X151530422Y-80271822D01*
X151530424Y-80271826D01*
X151530425Y-80271830D01*
X151567062Y-80350398D01*
X151622897Y-80470138D01*
X151633206Y-80484861D01*
X151748402Y-80649377D01*
X151903123Y-80804098D01*
X152032265Y-80894524D01*
X152082361Y-80929602D01*
X152233583Y-81000118D01*
X152286022Y-81046290D01*
X152305174Y-81113484D01*
X152284958Y-81180365D01*
X152233583Y-81224882D01*
X152082361Y-81295398D01*
X152082357Y-81295400D01*
X151903121Y-81420902D01*
X151748402Y-81575621D01*
X151622900Y-81754857D01*
X151622898Y-81754861D01*
X151530426Y-81953168D01*
X151530422Y-81953177D01*
X151473793Y-82164520D01*
X151473793Y-82164524D01*
X151455930Y-82368709D01*
X151454723Y-82382500D01*
X151470214Y-82559573D01*
X151473793Y-82600475D01*
X151473793Y-82600479D01*
X151530422Y-82811822D01*
X151530424Y-82811826D01*
X151530425Y-82811830D01*
X151531732Y-82814632D01*
X151622897Y-83010138D01*
X151622898Y-83010139D01*
X151748402Y-83189377D01*
X151903123Y-83344098D01*
X152082360Y-83469601D01*
X152082361Y-83469602D01*
X152233583Y-83540118D01*
X152286022Y-83586290D01*
X152305174Y-83653484D01*
X152284958Y-83720365D01*
X152233583Y-83764882D01*
X152082361Y-83835398D01*
X152082357Y-83835400D01*
X151903121Y-83960902D01*
X151748402Y-84115621D01*
X151622900Y-84294857D01*
X151622898Y-84294861D01*
X151530426Y-84493168D01*
X151530422Y-84493177D01*
X151473793Y-84704520D01*
X151473793Y-84704523D01*
X151471849Y-84726744D01*
X151454723Y-84922497D01*
X151454723Y-84922502D01*
X151473793Y-85140475D01*
X151473793Y-85140479D01*
X151530422Y-85351822D01*
X151530424Y-85351826D01*
X151530425Y-85351830D01*
X151550292Y-85394435D01*
X151622897Y-85550138D01*
X151633206Y-85564861D01*
X151748402Y-85729377D01*
X151903123Y-85884098D01*
X152032265Y-85974524D01*
X152082361Y-86009602D01*
X152233583Y-86080118D01*
X152286022Y-86126290D01*
X152305174Y-86193484D01*
X152284958Y-86260365D01*
X152233583Y-86304882D01*
X152082361Y-86375398D01*
X152082357Y-86375400D01*
X151903121Y-86500902D01*
X151748402Y-86655621D01*
X151622900Y-86834857D01*
X151622898Y-86834861D01*
X151552715Y-86985369D01*
X151531104Y-87031715D01*
X151530426Y-87033168D01*
X151530422Y-87033177D01*
X151473793Y-87244520D01*
X151473793Y-87244524D01*
X151454723Y-87462497D01*
X151454723Y-87462502D01*
X151473793Y-87680475D01*
X151473793Y-87680479D01*
X151530422Y-87891822D01*
X151530424Y-87891826D01*
X151530425Y-87891830D01*
X151567062Y-87970398D01*
X151622897Y-88090138D01*
X151622898Y-88090139D01*
X151748402Y-88269377D01*
X151903123Y-88424098D01*
X152082361Y-88549602D01*
X152280670Y-88642075D01*
X152492023Y-88698707D01*
X152674926Y-88714708D01*
X152709998Y-88717777D01*
X152710000Y-88717777D01*
X152710002Y-88717777D01*
X152738254Y-88715305D01*
X152927977Y-88698707D01*
X153139330Y-88642075D01*
X153337639Y-88549602D01*
X153516877Y-88424098D01*
X153671598Y-88269377D01*
X153674050Y-88265874D01*
X153728628Y-88222251D01*
X153775624Y-88213000D01*
X153875500Y-88213000D01*
X153942539Y-88232685D01*
X153988294Y-88285489D01*
X153999500Y-88337000D01*
X153999500Y-89530370D01*
X153999501Y-89530376D01*
X154005908Y-89589983D01*
X154056202Y-89724828D01*
X154056206Y-89724835D01*
X154142452Y-89840044D01*
X154142455Y-89840047D01*
X154257664Y-89926293D01*
X154257671Y-89926297D01*
X154392517Y-89976591D01*
X154392516Y-89976591D01*
X154399444Y-89977335D01*
X154452127Y-89983000D01*
X156047872Y-89982999D01*
X156107483Y-89976591D01*
X156242331Y-89926296D01*
X156302557Y-89881211D01*
X159749500Y-89881211D01*
X159749500Y-90123788D01*
X159781161Y-90364285D01*
X159843947Y-90598604D01*
X159902042Y-90738857D01*
X159936776Y-90822712D01*
X160058064Y-91032789D01*
X160058066Y-91032792D01*
X160058067Y-91032793D01*
X160205733Y-91225236D01*
X160205739Y-91225243D01*
X160377256Y-91396760D01*
X160377262Y-91396765D01*
X160569711Y-91544436D01*
X160779788Y-91665724D01*
X161003900Y-91758554D01*
X161238211Y-91821338D01*
X161418586Y-91845084D01*
X161478711Y-91853000D01*
X161478712Y-91853000D01*
X161721289Y-91853000D01*
X161769388Y-91846667D01*
X161961789Y-91821338D01*
X162196100Y-91758554D01*
X162420212Y-91665724D01*
X162630289Y-91544436D01*
X162822738Y-91396765D01*
X162994265Y-91225238D01*
X163141936Y-91032789D01*
X163263224Y-90822712D01*
X163356054Y-90598600D01*
X163418838Y-90364289D01*
X163450500Y-90123788D01*
X163450500Y-89881212D01*
X163445080Y-89840046D01*
X163430777Y-89731400D01*
X163418838Y-89640711D01*
X163356054Y-89406400D01*
X163263224Y-89182288D01*
X163141936Y-88972211D01*
X163032672Y-88829815D01*
X162994266Y-88779763D01*
X162994260Y-88779756D01*
X162822743Y-88608239D01*
X162822736Y-88608233D01*
X162630293Y-88460567D01*
X162630292Y-88460566D01*
X162630289Y-88460564D01*
X162420212Y-88339276D01*
X162420205Y-88339273D01*
X162196104Y-88246447D01*
X161963614Y-88184151D01*
X161961789Y-88183662D01*
X161961788Y-88183661D01*
X161961785Y-88183661D01*
X161721289Y-88152000D01*
X161721288Y-88152000D01*
X161478712Y-88152000D01*
X161478711Y-88152000D01*
X161238214Y-88183661D01*
X161003895Y-88246447D01*
X160779794Y-88339273D01*
X160779785Y-88339277D01*
X160569706Y-88460567D01*
X160377263Y-88608233D01*
X160377256Y-88608239D01*
X160205739Y-88779756D01*
X160205733Y-88779763D01*
X160058067Y-88972206D01*
X159936777Y-89182285D01*
X159936773Y-89182294D01*
X159843947Y-89406395D01*
X159781161Y-89640714D01*
X159749500Y-89881211D01*
X156302557Y-89881211D01*
X156357546Y-89840046D01*
X156443796Y-89724831D01*
X156494091Y-89589983D01*
X156500500Y-89530373D01*
X156500499Y-88336999D01*
X156520184Y-88269961D01*
X156572987Y-88224206D01*
X156624499Y-88213000D01*
X158785708Y-88213000D01*
X158836144Y-88223721D01*
X158920192Y-88261142D01*
X158920197Y-88261144D01*
X159105354Y-88300500D01*
X159105355Y-88300500D01*
X159294644Y-88300500D01*
X159294646Y-88300500D01*
X159479803Y-88261144D01*
X159652730Y-88184151D01*
X159805871Y-88072888D01*
X159932533Y-87932216D01*
X160027179Y-87768284D01*
X160085674Y-87588256D01*
X160105460Y-87400000D01*
X160085674Y-87211744D01*
X160027179Y-87031716D01*
X159996742Y-86978998D01*
X159980270Y-86911100D01*
X160003123Y-86845073D01*
X160058044Y-86801882D01*
X160104130Y-86793000D01*
X165609560Y-86793000D01*
X165676599Y-86812685D01*
X165697241Y-86829319D01*
X165697738Y-86829816D01*
X165758164Y-86867784D01*
X165827100Y-86911100D01*
X165850478Y-86925789D01*
X165910587Y-86946822D01*
X166020745Y-86985368D01*
X166020750Y-86985369D01*
X166199996Y-87005565D01*
X166200000Y-87005565D01*
X166200004Y-87005565D01*
X166379249Y-86985369D01*
X166379252Y-86985368D01*
X166379255Y-86985368D01*
X166549522Y-86925789D01*
X166702262Y-86829816D01*
X166829816Y-86702262D01*
X166925789Y-86549522D01*
X166985368Y-86379255D01*
X166985369Y-86379249D01*
X167005565Y-86200003D01*
X167005565Y-86199996D01*
X166985369Y-86020750D01*
X166985368Y-86020745D01*
X166981469Y-86009601D01*
X166925789Y-85850478D01*
X166923915Y-85847496D01*
X166855503Y-85738619D01*
X166829816Y-85697738D01*
X166702262Y-85570184D01*
X166587349Y-85497979D01*
X166549523Y-85474211D01*
X166379254Y-85414631D01*
X166379249Y-85414630D01*
X166200004Y-85394435D01*
X166199996Y-85394435D01*
X166020750Y-85414630D01*
X166020745Y-85414631D01*
X165850476Y-85474211D01*
X165693266Y-85572994D01*
X165627294Y-85592000D01*
X156420655Y-85592000D01*
X156353616Y-85572315D01*
X156319080Y-85539123D01*
X156211599Y-85385624D01*
X156139685Y-85313710D01*
X156056877Y-85230902D01*
X155877639Y-85105398D01*
X155726414Y-85034881D01*
X155673977Y-84988710D01*
X155654825Y-84921516D01*
X155675041Y-84854635D01*
X155726414Y-84810118D01*
X155877639Y-84739602D01*
X156056877Y-84614098D01*
X156211598Y-84459377D01*
X156337102Y-84280139D01*
X156429575Y-84081830D01*
X156486207Y-83870477D01*
X156505277Y-83652500D01*
X156503131Y-83627976D01*
X156501171Y-83605565D01*
X156486207Y-83434523D01*
X156451928Y-83306592D01*
X156453591Y-83236744D01*
X156492753Y-83178881D01*
X156556982Y-83151377D01*
X156571703Y-83150500D01*
X157660663Y-83150500D01*
X157727702Y-83170185D01*
X157733548Y-83174182D01*
X157747265Y-83184148D01*
X157747270Y-83184151D01*
X157920192Y-83261142D01*
X157920197Y-83261144D01*
X158105354Y-83300500D01*
X158105355Y-83300500D01*
X158294644Y-83300500D01*
X158294646Y-83300500D01*
X158479803Y-83261144D01*
X158652730Y-83184151D01*
X158805871Y-83072888D01*
X158932533Y-82932216D01*
X159027179Y-82768284D01*
X159085674Y-82588256D01*
X159105460Y-82400000D01*
X159085674Y-82211744D01*
X159027179Y-82031716D01*
X158932533Y-81867784D01*
X158805871Y-81727112D01*
X158805870Y-81727111D01*
X158652734Y-81615851D01*
X158652729Y-81615848D01*
X158479807Y-81538857D01*
X158479802Y-81538855D01*
X158320978Y-81505097D01*
X158294646Y-81499500D01*
X158105354Y-81499500D01*
X158105353Y-81499500D01*
X158035634Y-81514319D01*
X157965967Y-81509003D01*
X157910234Y-81466866D01*
X157886129Y-81401286D01*
X157886532Y-81380086D01*
X157905460Y-81200000D01*
X157885674Y-81011744D01*
X157827179Y-80831716D01*
X157732533Y-80667784D01*
X157605871Y-80527112D01*
X157597380Y-80520943D01*
X157452734Y-80415851D01*
X157452729Y-80415848D01*
X157279807Y-80338857D01*
X157279802Y-80338855D01*
X157134001Y-80307865D01*
X157094646Y-80299500D01*
X156905354Y-80299500D01*
X156892360Y-80302262D01*
X156720197Y-80338855D01*
X156692292Y-80351280D01*
X156641857Y-80362000D01*
X156315624Y-80362000D01*
X156248585Y-80342315D01*
X156214048Y-80309122D01*
X156211598Y-80305623D01*
X156141697Y-80235722D01*
X156056877Y-80150902D01*
X155877639Y-80025398D01*
X155877640Y-80025398D01*
X155877638Y-80025397D01*
X155751889Y-79966760D01*
X155679330Y-79932925D01*
X155679326Y-79932924D01*
X155679322Y-79932922D01*
X155467977Y-79876293D01*
X155250002Y-79857223D01*
X155249998Y-79857223D01*
X155104682Y-79869936D01*
X155032023Y-79876293D01*
X155032020Y-79876293D01*
X154820677Y-79932922D01*
X154820668Y-79932926D01*
X154622361Y-80025398D01*
X154622357Y-80025400D01*
X154443121Y-80150902D01*
X154288402Y-80305621D01*
X154162900Y-80484857D01*
X154162898Y-80484861D01*
X154094928Y-80630623D01*
X154072343Y-80679058D01*
X154070426Y-80683168D01*
X154070422Y-80683177D01*
X154013793Y-80894520D01*
X154013793Y-80894524D01*
X153994723Y-81112497D01*
X153994723Y-81112502D01*
X153998864Y-81159831D01*
X154013793Y-81330477D01*
X154057450Y-81493406D01*
X154055787Y-81563256D01*
X154016625Y-81621119D01*
X153952396Y-81648623D01*
X153937675Y-81649500D01*
X153787878Y-81649500D01*
X153720839Y-81629815D01*
X153686304Y-81596624D01*
X153671600Y-81575625D01*
X153595475Y-81499500D01*
X153516877Y-81420902D01*
X153337639Y-81295398D01*
X153186414Y-81224881D01*
X153133977Y-81178710D01*
X153114825Y-81111516D01*
X153135041Y-81044635D01*
X153186414Y-81000118D01*
X153337639Y-80929602D01*
X153516877Y-80804098D01*
X153671598Y-80649377D01*
X153797102Y-80470139D01*
X153889575Y-80271830D01*
X153946207Y-80060477D01*
X153965277Y-79842500D01*
X153946207Y-79624523D01*
X153889575Y-79413170D01*
X153797102Y-79214862D01*
X153797100Y-79214859D01*
X153797099Y-79214857D01*
X153671599Y-79035624D01*
X153609677Y-78973702D01*
X153516877Y-78880902D01*
X153378978Y-78784344D01*
X153337638Y-78755397D01*
X153205516Y-78693788D01*
X153139330Y-78662925D01*
X153139326Y-78662924D01*
X153139322Y-78662922D01*
X152927977Y-78606293D01*
X152710002Y-78587223D01*
X152709998Y-78587223D01*
X152564682Y-78599936D01*
X152492023Y-78606293D01*
X152492020Y-78606293D01*
X152280677Y-78662922D01*
X152280668Y-78662926D01*
X152082361Y-78755398D01*
X152082357Y-78755400D01*
X151903121Y-78880902D01*
X151748402Y-79035621D01*
X151622900Y-79214857D01*
X151622898Y-79214861D01*
X151530426Y-79413168D01*
X151530422Y-79413177D01*
X151473793Y-79624520D01*
X151473793Y-79624524D01*
X151457238Y-79813756D01*
X151454723Y-79842500D01*
X151200500Y-79842500D01*
X151200500Y-78451211D01*
X159749500Y-78451211D01*
X159749500Y-78693788D01*
X159781161Y-78934285D01*
X159843947Y-79168604D01*
X159927209Y-79369616D01*
X159936776Y-79392712D01*
X160058064Y-79602789D01*
X160058066Y-79602792D01*
X160058067Y-79602793D01*
X160205733Y-79795236D01*
X160205739Y-79795243D01*
X160377256Y-79966760D01*
X160377263Y-79966766D01*
X160453673Y-80025397D01*
X160569711Y-80114436D01*
X160779788Y-80235724D01*
X160948535Y-80305621D01*
X160988644Y-80322235D01*
X161003900Y-80328554D01*
X161238211Y-80391338D01*
X161415134Y-80414630D01*
X161478711Y-80423000D01*
X161478712Y-80423000D01*
X161721289Y-80423000D01*
X161784850Y-80414632D01*
X161961789Y-80391338D01*
X162196100Y-80328554D01*
X162420212Y-80235724D01*
X162630289Y-80114436D01*
X162822738Y-79966765D01*
X162994265Y-79795238D01*
X163141936Y-79602789D01*
X163263224Y-79392712D01*
X163356054Y-79168600D01*
X163418838Y-78934289D01*
X163450500Y-78693788D01*
X163450500Y-78451212D01*
X163418838Y-78210711D01*
X163356054Y-77976400D01*
X163263224Y-77752288D01*
X163141936Y-77542211D01*
X163027977Y-77393696D01*
X162994266Y-77349763D01*
X162994260Y-77349756D01*
X162822743Y-77178239D01*
X162822736Y-77178233D01*
X162630293Y-77030567D01*
X162630292Y-77030566D01*
X162630289Y-77030564D01*
X162420212Y-76909276D01*
X162420205Y-76909273D01*
X162196104Y-76816447D01*
X161961785Y-76753661D01*
X161721289Y-76722000D01*
X161721288Y-76722000D01*
X161478712Y-76722000D01*
X161478711Y-76722000D01*
X161238214Y-76753661D01*
X161003895Y-76816447D01*
X160779794Y-76909273D01*
X160779785Y-76909277D01*
X160569706Y-77030567D01*
X160377263Y-77178233D01*
X160377256Y-77178239D01*
X160205739Y-77349756D01*
X160205733Y-77349763D01*
X160058067Y-77542206D01*
X159936777Y-77752285D01*
X159936773Y-77752294D01*
X159843947Y-77976395D01*
X159781161Y-78210714D01*
X159749500Y-78451211D01*
X151200500Y-78451211D01*
X151200500Y-78382412D01*
X151220185Y-78315373D01*
X151227555Y-78305097D01*
X151229810Y-78302267D01*
X151229816Y-78302262D01*
X151325789Y-78149522D01*
X151385368Y-77979255D01*
X151385690Y-77976400D01*
X151405565Y-77800003D01*
X151405565Y-77799996D01*
X151385369Y-77620750D01*
X151385368Y-77620745D01*
X151344249Y-77503233D01*
X151325789Y-77450478D01*
X151229816Y-77297738D01*
X151102262Y-77170184D01*
X150949523Y-77074211D01*
X150779254Y-77014631D01*
X150779249Y-77014630D01*
X150600004Y-76994435D01*
X150599996Y-76994435D01*
X150420750Y-77014630D01*
X150420745Y-77014631D01*
X150250476Y-77074211D01*
X150097737Y-77170184D01*
X149970184Y-77297737D01*
X149874211Y-77450476D01*
X149814631Y-77620745D01*
X149814630Y-77620750D01*
X149794435Y-77799996D01*
X149794435Y-77800003D01*
X149814630Y-77979249D01*
X149814631Y-77979254D01*
X149874211Y-78149523D01*
X149934515Y-78245496D01*
X149969642Y-78301400D01*
X149970185Y-78302263D01*
X149972445Y-78305097D01*
X149973334Y-78307275D01*
X149973889Y-78308158D01*
X149973734Y-78308255D01*
X149998855Y-78369783D01*
X149999500Y-78382412D01*
X149999500Y-80134083D01*
X149979815Y-80201122D01*
X149927011Y-80246877D01*
X149916456Y-80251124D01*
X149850476Y-80274211D01*
X149850475Y-80274212D01*
X149697737Y-80370184D01*
X149570184Y-80497737D01*
X149474211Y-80650476D01*
X149414631Y-80820745D01*
X149414630Y-80820750D01*
X149394435Y-80999996D01*
X149394435Y-81000003D01*
X149414630Y-81179249D01*
X149414631Y-81179254D01*
X149474211Y-81349523D01*
X149519062Y-81420902D01*
X149564619Y-81493406D01*
X149570185Y-81502263D01*
X149572445Y-81505097D01*
X149573334Y-81507275D01*
X149573889Y-81508158D01*
X149573734Y-81508255D01*
X149598855Y-81569783D01*
X149599500Y-81582412D01*
X149599500Y-82650902D01*
X149579815Y-82717941D01*
X149527011Y-82763696D01*
X149457853Y-82773640D01*
X149394297Y-82744615D01*
X149387819Y-82738583D01*
X147487590Y-80838355D01*
X147487588Y-80838352D01*
X147368717Y-80719481D01*
X147368709Y-80719475D01*
X147254529Y-80653554D01*
X147254529Y-80653553D01*
X147254526Y-80653553D01*
X147231785Y-80640423D01*
X147079057Y-80599499D01*
X146920943Y-80599499D01*
X146913347Y-80599499D01*
X146913331Y-80599500D01*
X144782412Y-80599500D01*
X144715373Y-80579815D01*
X144705097Y-80572445D01*
X144702263Y-80570185D01*
X144702262Y-80570184D01*
X144586965Y-80497738D01*
X144549521Y-80474210D01*
X144401849Y-80422538D01*
X144379255Y-80414632D01*
X144379254Y-80414631D01*
X144379249Y-80414630D01*
X144310616Y-80406897D01*
X144246202Y-80379830D01*
X144206647Y-80322235D01*
X144200500Y-80283677D01*
X144200500Y-79725493D01*
X144219508Y-79659519D01*
X144225787Y-79649525D01*
X144225788Y-79649523D01*
X144225789Y-79649522D01*
X144285368Y-79479255D01*
X144285369Y-79479249D01*
X144305565Y-79300003D01*
X144305565Y-79299996D01*
X144285369Y-79120750D01*
X144285368Y-79120745D01*
X144255583Y-79035624D01*
X144225789Y-78950478D01*
X144208780Y-78923409D01*
X144129815Y-78797737D01*
X144002262Y-78670184D01*
X143849523Y-78574211D01*
X143679254Y-78514631D01*
X143679249Y-78514630D01*
X143500004Y-78494435D01*
X143499996Y-78494435D01*
X143320750Y-78514630D01*
X143320745Y-78514631D01*
X143150476Y-78574211D01*
X142997737Y-78670184D01*
X142870184Y-78797737D01*
X142774211Y-78950476D01*
X142714631Y-79120745D01*
X142714630Y-79120750D01*
X142694435Y-79299996D01*
X138281015Y-79299996D01*
X138281015Y-78701897D01*
X138300700Y-78634858D01*
X138308070Y-78624582D01*
X138310325Y-78621752D01*
X138310331Y-78621747D01*
X138406304Y-78469007D01*
X138465883Y-78298740D01*
X138475801Y-78210714D01*
X138486080Y-78119488D01*
X138486080Y-78119481D01*
X138465884Y-77940235D01*
X138465883Y-77940230D01*
X138406304Y-77769963D01*
X138310331Y-77617223D01*
X138182777Y-77489669D01*
X138120402Y-77450476D01*
X138030038Y-77393696D01*
X137859769Y-77334116D01*
X137859764Y-77334115D01*
X137680519Y-77313920D01*
X137680511Y-77313920D01*
X137501265Y-77334115D01*
X137501260Y-77334116D01*
X137330991Y-77393696D01*
X137178252Y-77489669D01*
X137050699Y-77617222D01*
X136954726Y-77769961D01*
X136895146Y-77940230D01*
X136895145Y-77940235D01*
X136874950Y-78119481D01*
X136874950Y-78119488D01*
X136895145Y-78298734D01*
X136895146Y-78298739D01*
X136954726Y-78469008D01*
X137050700Y-78621748D01*
X137052960Y-78624582D01*
X137053849Y-78626760D01*
X137054404Y-78627643D01*
X137054249Y-78627740D01*
X137079370Y-78689268D01*
X137080015Y-78701897D01*
X137080015Y-78987119D01*
X137060330Y-79054158D01*
X137021987Y-79092113D01*
X136897737Y-79170184D01*
X136770184Y-79297737D01*
X136674211Y-79450476D01*
X136614631Y-79620745D01*
X136614630Y-79620750D01*
X136594435Y-79799996D01*
X127850499Y-79799996D01*
X127850499Y-79369628D01*
X127844091Y-79310017D01*
X127840353Y-79299996D01*
X127793797Y-79175171D01*
X127793793Y-79175164D01*
X127707547Y-79059955D01*
X127707544Y-79059952D01*
X127592335Y-78973706D01*
X127592328Y-78973702D01*
X127457482Y-78923408D01*
X127457483Y-78923408D01*
X127397883Y-78917001D01*
X127397881Y-78917000D01*
X127397873Y-78917000D01*
X127397864Y-78917000D01*
X125802129Y-78917000D01*
X125802123Y-78917001D01*
X125742516Y-78923408D01*
X125607671Y-78973702D01*
X125607664Y-78973706D01*
X125492455Y-79059952D01*
X125492452Y-79059955D01*
X125406206Y-79175164D01*
X125406202Y-79175171D01*
X125355908Y-79310017D01*
X125349501Y-79369616D01*
X125349501Y-79369623D01*
X125349500Y-79369635D01*
X125349500Y-80965370D01*
X125349501Y-80965376D01*
X125355908Y-81024983D01*
X125406202Y-81159828D01*
X125406206Y-81159835D01*
X125492452Y-81275044D01*
X125492455Y-81275047D01*
X125607664Y-81361293D01*
X125607671Y-81361297D01*
X125742517Y-81411591D01*
X125742516Y-81411591D01*
X125749444Y-81412335D01*
X125802127Y-81418000D01*
X125868139Y-81417999D01*
X125935176Y-81437683D01*
X125980932Y-81490486D01*
X125990876Y-81559644D01*
X125961852Y-81623200D01*
X125939262Y-81643574D01*
X125793118Y-81745905D01*
X125638402Y-81900621D01*
X125530920Y-82054123D01*
X125476343Y-82097748D01*
X125429345Y-82107000D01*
X116037430Y-82107000D01*
X115971458Y-82087994D01*
X115949523Y-82074211D01*
X115779254Y-82014631D01*
X115779249Y-82014630D01*
X115600004Y-81994435D01*
X115599996Y-81994435D01*
X115420750Y-82014630D01*
X115420745Y-82014631D01*
X115250476Y-82074211D01*
X115097737Y-82170184D01*
X114970184Y-82297737D01*
X114874211Y-82450476D01*
X114814631Y-82620745D01*
X114814630Y-82620750D01*
X114794435Y-82799996D01*
X112500500Y-82799996D01*
X112500500Y-78776211D01*
X118399500Y-78776211D01*
X118399500Y-79018788D01*
X118425312Y-79214857D01*
X118431162Y-79259289D01*
X118442070Y-79299996D01*
X118493947Y-79493604D01*
X118586773Y-79717705D01*
X118586776Y-79717712D01*
X118708064Y-79927789D01*
X118708066Y-79927792D01*
X118708067Y-79927793D01*
X118855733Y-80120236D01*
X118855739Y-80120243D01*
X119027256Y-80291760D01*
X119027263Y-80291766D01*
X119093140Y-80342315D01*
X119219711Y-80439436D01*
X119429788Y-80560724D01*
X119653900Y-80653554D01*
X119888211Y-80716338D01*
X120068586Y-80740084D01*
X120128711Y-80748000D01*
X120128712Y-80748000D01*
X120371289Y-80748000D01*
X120419388Y-80741667D01*
X120611789Y-80716338D01*
X120846100Y-80653554D01*
X121070212Y-80560724D01*
X121280289Y-80439436D01*
X121472738Y-80291765D01*
X121644265Y-80120238D01*
X121791936Y-79927789D01*
X121913224Y-79717712D01*
X122006054Y-79493600D01*
X122068838Y-79259289D01*
X122100500Y-79018788D01*
X122100500Y-78776212D01*
X122068838Y-78535711D01*
X122006054Y-78301400D01*
X121913224Y-78077288D01*
X121791936Y-77867211D01*
X121644265Y-77674762D01*
X121644260Y-77674756D01*
X121472743Y-77503239D01*
X121472736Y-77503233D01*
X121280293Y-77355567D01*
X121280292Y-77355566D01*
X121280289Y-77355564D01*
X121070212Y-77234276D01*
X121070205Y-77234273D01*
X120846104Y-77141447D01*
X120611785Y-77078661D01*
X120371289Y-77047000D01*
X120371288Y-77047000D01*
X120128712Y-77047000D01*
X120128711Y-77047000D01*
X119888214Y-77078661D01*
X119653895Y-77141447D01*
X119429794Y-77234273D01*
X119429785Y-77234277D01*
X119219706Y-77355567D01*
X119027263Y-77503233D01*
X119027256Y-77503239D01*
X118855739Y-77674756D01*
X118855733Y-77674763D01*
X118708067Y-77867206D01*
X118586777Y-78077285D01*
X118586773Y-78077294D01*
X118493947Y-78301395D01*
X118431161Y-78535714D01*
X118399500Y-78776211D01*
X112500500Y-78776211D01*
X112500500Y-73666150D01*
X112520185Y-73599111D01*
X112572989Y-73553356D01*
X112642147Y-73543412D01*
X112705703Y-73572437D01*
X112739693Y-73620253D01*
X112854700Y-73908901D01*
X112854706Y-73908913D01*
X113024878Y-74229892D01*
X113024884Y-74229901D01*
X113228772Y-74530613D01*
X113345287Y-74667785D01*
X113463979Y-74807521D01*
X113727746Y-75057375D01*
X114016981Y-75277245D01*
X114328292Y-75464555D01*
X114328294Y-75464556D01*
X114328296Y-75464557D01*
X114328300Y-75464559D01*
X114552484Y-75568277D01*
X114658031Y-75617108D01*
X115002330Y-75733116D01*
X115357153Y-75811218D01*
X115718341Y-75850500D01*
X115718347Y-75850500D01*
X116081653Y-75850500D01*
X116081659Y-75850500D01*
X116442847Y-75811218D01*
X116797670Y-75733116D01*
X117141969Y-75617108D01*
X117471708Y-75464555D01*
X117783019Y-75277245D01*
X117884633Y-75200000D01*
X122494540Y-75200000D01*
X122514326Y-75388256D01*
X122514327Y-75388259D01*
X122572818Y-75568277D01*
X122572821Y-75568284D01*
X122667467Y-75732216D01*
X122738601Y-75811218D01*
X122794129Y-75872888D01*
X122947265Y-75984148D01*
X122947270Y-75984151D01*
X123120192Y-76061142D01*
X123120197Y-76061144D01*
X123305354Y-76100500D01*
X123305355Y-76100500D01*
X123494644Y-76100500D01*
X123494646Y-76100500D01*
X123679803Y-76061144D01*
X123852730Y-75984151D01*
X123854776Y-75982664D01*
X123866452Y-75974182D01*
X123932258Y-75950702D01*
X123939337Y-75950500D01*
X128660663Y-75950500D01*
X128727702Y-75970185D01*
X128733548Y-75974182D01*
X128747265Y-75984148D01*
X128747270Y-75984151D01*
X128920192Y-76061142D01*
X128920197Y-76061144D01*
X129105354Y-76100500D01*
X129105355Y-76100500D01*
X129294644Y-76100500D01*
X129294646Y-76100500D01*
X129479803Y-76061144D01*
X129652730Y-75984151D01*
X129654776Y-75982664D01*
X129666452Y-75974182D01*
X129732258Y-75950702D01*
X129739337Y-75950500D01*
X151326082Y-75950500D01*
X152260663Y-75950500D01*
X152327702Y-75970185D01*
X152333548Y-75974182D01*
X152347265Y-75984148D01*
X152347270Y-75984151D01*
X152520192Y-76061142D01*
X152520197Y-76061144D01*
X152705354Y-76100500D01*
X152705355Y-76100500D01*
X152894644Y-76100500D01*
X152894646Y-76100500D01*
X153079803Y-76061144D01*
X153252730Y-75984151D01*
X153254776Y-75982664D01*
X153266452Y-75974182D01*
X153332258Y-75950702D01*
X153339337Y-75950500D01*
X157660663Y-75950500D01*
X157727702Y-75970185D01*
X157733548Y-75974182D01*
X157747265Y-75984148D01*
X157747270Y-75984151D01*
X157920192Y-76061142D01*
X157920197Y-76061144D01*
X158105354Y-76100500D01*
X158105355Y-76100500D01*
X158294644Y-76100500D01*
X158294646Y-76100500D01*
X158479803Y-76061144D01*
X158652730Y-75984151D01*
X158805871Y-75872888D01*
X158932533Y-75732216D01*
X159027179Y-75568284D01*
X159085674Y-75388256D01*
X159105460Y-75200000D01*
X159085674Y-75011744D01*
X159027179Y-74831716D01*
X158932533Y-74667784D01*
X158805871Y-74527112D01*
X158805870Y-74527111D01*
X158652734Y-74415851D01*
X158652729Y-74415848D01*
X158479807Y-74338857D01*
X158479802Y-74338855D01*
X158334001Y-74307865D01*
X158294646Y-74299500D01*
X158105354Y-74299500D01*
X158072897Y-74306398D01*
X157920197Y-74338855D01*
X157920192Y-74338857D01*
X157747270Y-74415848D01*
X157747265Y-74415851D01*
X157733548Y-74425818D01*
X157667742Y-74449298D01*
X157660663Y-74449500D01*
X153339337Y-74449500D01*
X153272298Y-74429815D01*
X153266452Y-74425818D01*
X153252734Y-74415851D01*
X153252729Y-74415848D01*
X153079807Y-74338857D01*
X153079802Y-74338855D01*
X152934001Y-74307865D01*
X152894646Y-74299500D01*
X152705354Y-74299500D01*
X152672897Y-74306398D01*
X152520197Y-74338855D01*
X152520192Y-74338857D01*
X152347270Y-74415848D01*
X152347265Y-74415851D01*
X152333548Y-74425818D01*
X152267742Y-74449298D01*
X152260663Y-74449500D01*
X148907336Y-74449500D01*
X148840297Y-74429815D01*
X148794542Y-74377011D01*
X148784116Y-74311616D01*
X148795565Y-74210002D01*
X148795565Y-74209996D01*
X148775369Y-74030750D01*
X148775368Y-74030745D01*
X148715788Y-73860476D01*
X148619815Y-73707737D01*
X148492262Y-73580184D01*
X148339523Y-73484211D01*
X148169254Y-73424631D01*
X148169249Y-73424630D01*
X147990004Y-73404435D01*
X147990001Y-73404435D01*
X147990000Y-73404435D01*
X147952649Y-73408643D01*
X147934100Y-73410733D01*
X147888127Y-73407288D01*
X147875234Y-73403833D01*
X147859057Y-73399499D01*
X147700943Y-73399499D01*
X147693347Y-73399499D01*
X147693331Y-73399500D01*
X137782412Y-73399500D01*
X137715373Y-73379815D01*
X137705097Y-73372445D01*
X137702263Y-73370185D01*
X137702262Y-73370184D01*
X137635324Y-73328124D01*
X137549523Y-73274211D01*
X137379254Y-73214631D01*
X137379249Y-73214630D01*
X137200004Y-73194435D01*
X137199996Y-73194435D01*
X137020750Y-73214630D01*
X137020745Y-73214631D01*
X136850476Y-73274211D01*
X136697737Y-73370184D01*
X136570182Y-73497739D01*
X136542703Y-73541473D01*
X136490369Y-73587763D01*
X136437710Y-73599500D01*
X131582412Y-73599500D01*
X131515373Y-73579815D01*
X131505097Y-73572445D01*
X131502263Y-73570185D01*
X131502262Y-73570184D01*
X131386967Y-73497739D01*
X131349523Y-73474211D01*
X131179254Y-73414631D01*
X131179249Y-73414630D01*
X131000004Y-73394435D01*
X130999996Y-73394435D01*
X130820750Y-73414630D01*
X130820745Y-73414631D01*
X130650476Y-73474211D01*
X130497737Y-73570184D01*
X130370184Y-73697737D01*
X130274211Y-73850476D01*
X130214631Y-74020745D01*
X130214630Y-74020750D01*
X130194435Y-74199996D01*
X130194435Y-74200002D01*
X130207011Y-74311616D01*
X130194957Y-74380438D01*
X130147608Y-74431818D01*
X130083791Y-74449500D01*
X129739337Y-74449500D01*
X129672298Y-74429815D01*
X129666452Y-74425818D01*
X129652734Y-74415851D01*
X129652729Y-74415848D01*
X129479807Y-74338857D01*
X129479802Y-74338855D01*
X129334001Y-74307865D01*
X129294646Y-74299500D01*
X129105354Y-74299500D01*
X129072897Y-74306398D01*
X128920197Y-74338855D01*
X128920192Y-74338857D01*
X128747270Y-74415848D01*
X128747265Y-74415851D01*
X128733548Y-74425818D01*
X128667742Y-74449298D01*
X128660663Y-74449500D01*
X123939337Y-74449500D01*
X123872298Y-74429815D01*
X123866452Y-74425818D01*
X123852734Y-74415851D01*
X123852729Y-74415848D01*
X123679807Y-74338857D01*
X123679802Y-74338855D01*
X123534001Y-74307865D01*
X123494646Y-74299500D01*
X123305354Y-74299500D01*
X123272897Y-74306398D01*
X123120197Y-74338855D01*
X123120192Y-74338857D01*
X122947270Y-74415848D01*
X122947265Y-74415851D01*
X122794129Y-74527111D01*
X122667466Y-74667785D01*
X122572821Y-74831715D01*
X122572818Y-74831722D01*
X122514327Y-75011740D01*
X122514326Y-75011744D01*
X122494540Y-75200000D01*
X117884633Y-75200000D01*
X118072254Y-75057375D01*
X118336021Y-74807521D01*
X118571227Y-74530614D01*
X118775117Y-74229900D01*
X118945298Y-73908905D01*
X119079775Y-73571391D01*
X119084783Y-73553356D01*
X119115153Y-73443969D01*
X119176973Y-73221316D01*
X119235751Y-72862785D01*
X119255421Y-72500000D01*
X119235751Y-72137215D01*
X119228393Y-72092335D01*
X119176975Y-71778696D01*
X119176974Y-71778695D01*
X119176973Y-71778684D01*
X119145838Y-71666546D01*
X119079778Y-71428618D01*
X119079773Y-71428603D01*
X118945299Y-71091098D01*
X118945298Y-71091095D01*
X118775117Y-70770100D01*
X118571227Y-70469386D01*
X118336021Y-70192479D01*
X118240646Y-70102135D01*
X130729500Y-70102135D01*
X130729500Y-71897870D01*
X130729501Y-71897876D01*
X130735908Y-71957483D01*
X130786202Y-72092328D01*
X130786206Y-72092335D01*
X130872452Y-72207544D01*
X130872455Y-72207547D01*
X130987664Y-72293793D01*
X130987671Y-72293797D01*
X131122517Y-72344091D01*
X131122516Y-72344091D01*
X131129444Y-72344835D01*
X131182127Y-72350500D01*
X132977872Y-72350499D01*
X133037483Y-72344091D01*
X133172331Y-72293796D01*
X133287546Y-72207546D01*
X133373796Y-72092331D01*
X133422810Y-71960916D01*
X133464681Y-71904984D01*
X133530145Y-71880566D01*
X133598418Y-71895417D01*
X133626673Y-71916569D01*
X133748599Y-72038495D01*
X133845384Y-72106265D01*
X133942165Y-72174032D01*
X133942167Y-72174033D01*
X133942170Y-72174035D01*
X134156337Y-72273903D01*
X134384592Y-72335063D01*
X134561034Y-72350500D01*
X134619999Y-72355659D01*
X134620000Y-72355659D01*
X134620001Y-72355659D01*
X134678966Y-72350500D01*
X134855408Y-72335063D01*
X135083663Y-72273903D01*
X135297830Y-72174035D01*
X135491401Y-72038495D01*
X135658495Y-71871401D01*
X135788425Y-71685842D01*
X135843002Y-71642217D01*
X135912500Y-71635023D01*
X135974855Y-71666546D01*
X135991575Y-71685842D01*
X136121500Y-71871395D01*
X136121505Y-71871401D01*
X136288599Y-72038495D01*
X136385384Y-72106265D01*
X136482165Y-72174032D01*
X136482167Y-72174033D01*
X136482170Y-72174035D01*
X136696337Y-72273903D01*
X136924592Y-72335063D01*
X137101034Y-72350500D01*
X137159999Y-72355659D01*
X137160000Y-72355659D01*
X137160001Y-72355659D01*
X137218966Y-72350500D01*
X137395408Y-72335063D01*
X137623663Y-72273903D01*
X137837830Y-72174035D01*
X138031401Y-72038495D01*
X138198495Y-71871401D01*
X138328425Y-71685842D01*
X138383002Y-71642217D01*
X138452500Y-71635023D01*
X138514855Y-71666546D01*
X138531575Y-71685842D01*
X138661500Y-71871395D01*
X138661505Y-71871401D01*
X138828599Y-72038495D01*
X138925384Y-72106265D01*
X139022165Y-72174032D01*
X139022167Y-72174033D01*
X139022170Y-72174035D01*
X139236337Y-72273903D01*
X139464592Y-72335063D01*
X139641034Y-72350500D01*
X139699999Y-72355659D01*
X139700000Y-72355659D01*
X139700001Y-72355659D01*
X139758966Y-72350500D01*
X139935408Y-72335063D01*
X140163663Y-72273903D01*
X140377830Y-72174035D01*
X140571401Y-72038495D01*
X140738495Y-71871401D01*
X140868425Y-71685842D01*
X140923002Y-71642217D01*
X140992500Y-71635023D01*
X141054855Y-71666546D01*
X141071575Y-71685842D01*
X141201500Y-71871395D01*
X141201505Y-71871401D01*
X141368599Y-72038495D01*
X141465384Y-72106265D01*
X141562165Y-72174032D01*
X141562167Y-72174033D01*
X141562170Y-72174035D01*
X141776337Y-72273903D01*
X142004592Y-72335063D01*
X142181034Y-72350500D01*
X142239999Y-72355659D01*
X142240000Y-72355659D01*
X142240001Y-72355659D01*
X142298966Y-72350500D01*
X142475408Y-72335063D01*
X142703663Y-72273903D01*
X142917830Y-72174035D01*
X143111401Y-72038495D01*
X143278495Y-71871401D01*
X143408425Y-71685842D01*
X143463002Y-71642217D01*
X143532500Y-71635023D01*
X143594855Y-71666546D01*
X143611575Y-71685842D01*
X143741500Y-71871395D01*
X143741505Y-71871401D01*
X143908599Y-72038495D01*
X144005384Y-72106265D01*
X144102165Y-72174032D01*
X144102167Y-72174033D01*
X144102170Y-72174035D01*
X144316337Y-72273903D01*
X144544592Y-72335063D01*
X144721034Y-72350500D01*
X144779999Y-72355659D01*
X144780000Y-72355659D01*
X144780001Y-72355659D01*
X144838966Y-72350500D01*
X145015408Y-72335063D01*
X145243663Y-72273903D01*
X145457830Y-72174035D01*
X145651401Y-72038495D01*
X145818495Y-71871401D01*
X145954035Y-71677830D01*
X146053903Y-71463663D01*
X146115063Y-71235408D01*
X146135659Y-71000000D01*
X146115063Y-70764592D01*
X146053903Y-70536337D01*
X145954035Y-70322171D01*
X145948425Y-70314158D01*
X145818494Y-70128597D01*
X145651402Y-69961506D01*
X145651395Y-69961501D01*
X145457834Y-69825967D01*
X145457830Y-69825965D01*
X145430048Y-69813010D01*
X145243663Y-69726097D01*
X145243659Y-69726096D01*
X145243655Y-69726094D01*
X145015413Y-69664938D01*
X145015403Y-69664936D01*
X144780001Y-69644341D01*
X144779999Y-69644341D01*
X144544596Y-69664936D01*
X144544586Y-69664938D01*
X144316344Y-69726094D01*
X144316335Y-69726098D01*
X144102171Y-69825964D01*
X144102169Y-69825965D01*
X143908597Y-69961505D01*
X143741505Y-70128597D01*
X143611575Y-70314158D01*
X143556998Y-70357783D01*
X143487500Y-70364977D01*
X143425145Y-70333454D01*
X143408425Y-70314158D01*
X143278494Y-70128597D01*
X143111402Y-69961506D01*
X143111395Y-69961501D01*
X142917834Y-69825967D01*
X142917830Y-69825965D01*
X142890048Y-69813010D01*
X142703663Y-69726097D01*
X142703659Y-69726096D01*
X142703655Y-69726094D01*
X142475413Y-69664938D01*
X142475403Y-69664936D01*
X142240001Y-69644341D01*
X142239999Y-69644341D01*
X142004596Y-69664936D01*
X142004586Y-69664938D01*
X141776344Y-69726094D01*
X141776335Y-69726098D01*
X141562171Y-69825964D01*
X141562169Y-69825965D01*
X141368597Y-69961505D01*
X141201505Y-70128597D01*
X141071575Y-70314158D01*
X141016998Y-70357783D01*
X140947500Y-70364977D01*
X140885145Y-70333454D01*
X140868425Y-70314158D01*
X140738494Y-70128597D01*
X140571402Y-69961506D01*
X140571395Y-69961501D01*
X140377834Y-69825967D01*
X140377830Y-69825965D01*
X140350048Y-69813010D01*
X140163663Y-69726097D01*
X140163659Y-69726096D01*
X140163655Y-69726094D01*
X139935413Y-69664938D01*
X139935403Y-69664936D01*
X139700001Y-69644341D01*
X139699999Y-69644341D01*
X139464596Y-69664936D01*
X139464586Y-69664938D01*
X139236344Y-69726094D01*
X139236335Y-69726098D01*
X139022171Y-69825964D01*
X139022169Y-69825965D01*
X138828597Y-69961505D01*
X138661505Y-70128597D01*
X138531575Y-70314158D01*
X138476998Y-70357783D01*
X138407500Y-70364977D01*
X138345145Y-70333454D01*
X138328425Y-70314158D01*
X138198494Y-70128597D01*
X138031402Y-69961506D01*
X138031395Y-69961501D01*
X137837834Y-69825967D01*
X137837830Y-69825965D01*
X137810048Y-69813010D01*
X137623663Y-69726097D01*
X137623659Y-69726096D01*
X137623655Y-69726094D01*
X137395413Y-69664938D01*
X137395403Y-69664936D01*
X137160001Y-69644341D01*
X137159999Y-69644341D01*
X136924596Y-69664936D01*
X136924586Y-69664938D01*
X136696344Y-69726094D01*
X136696335Y-69726098D01*
X136482171Y-69825964D01*
X136482169Y-69825965D01*
X136288597Y-69961505D01*
X136121505Y-70128597D01*
X135991575Y-70314158D01*
X135936998Y-70357783D01*
X135867500Y-70364977D01*
X135805145Y-70333454D01*
X135788425Y-70314158D01*
X135658494Y-70128597D01*
X135491402Y-69961506D01*
X135491395Y-69961501D01*
X135297834Y-69825967D01*
X135297830Y-69825965D01*
X135270048Y-69813010D01*
X135083663Y-69726097D01*
X135083659Y-69726096D01*
X135083655Y-69726094D01*
X134855413Y-69664938D01*
X134855403Y-69664936D01*
X134620001Y-69644341D01*
X134619999Y-69644341D01*
X134384596Y-69664936D01*
X134384586Y-69664938D01*
X134156344Y-69726094D01*
X134156335Y-69726098D01*
X133942171Y-69825964D01*
X133942169Y-69825965D01*
X133748600Y-69961503D01*
X133626673Y-70083430D01*
X133565350Y-70116914D01*
X133495658Y-70111930D01*
X133439725Y-70070058D01*
X133422810Y-70039081D01*
X133373797Y-69907671D01*
X133373793Y-69907664D01*
X133287547Y-69792455D01*
X133287544Y-69792452D01*
X133172335Y-69706206D01*
X133172328Y-69706202D01*
X133037482Y-69655908D01*
X133037483Y-69655908D01*
X132977883Y-69649501D01*
X132977881Y-69649500D01*
X132977873Y-69649500D01*
X132977864Y-69649500D01*
X131182129Y-69649500D01*
X131182123Y-69649501D01*
X131122516Y-69655908D01*
X130987671Y-69706202D01*
X130987664Y-69706206D01*
X130872455Y-69792452D01*
X130872452Y-69792455D01*
X130786206Y-69907664D01*
X130786202Y-69907671D01*
X130735908Y-70042517D01*
X130729501Y-70102116D01*
X130729500Y-70102135D01*
X118240646Y-70102135D01*
X118072254Y-69942625D01*
X118072244Y-69942617D01*
X117972861Y-69867069D01*
X117783019Y-69722755D01*
X117471708Y-69535445D01*
X117471707Y-69535444D01*
X117471703Y-69535442D01*
X117471699Y-69535440D01*
X117141979Y-69382896D01*
X117141974Y-69382894D01*
X117141969Y-69382892D01*
X117020631Y-69342008D01*
X116963388Y-69301949D01*
X116936888Y-69237299D01*
X116949548Y-69168586D01*
X116997347Y-69117625D01*
X117060226Y-69100500D01*
X164839774Y-69100500D01*
X164906813Y-69120185D01*
G37*
%TD.AperFunction*%
%TD*%
M02*
