M48
; DRILL file {KiCad 8.0.3} date 2024-06-22T22:44:29-0500
; FORMAT={-:-/ absolute / inch / decimal}
; #@! TF.CreationDate,2024-06-22T22:44:29-05:00
; #@! TF.GenerationSoftware,Kicad,Pcbnew,8.0.3
; #@! TF.FileFunction,Plated,1,2,PTH
FMAT,2
INCH
; #@! TA.AperFunction,Plated,PTH,ViaDrill
T1C0.0118
; #@! TA.AperFunction,Plated,PTH,ViaDrill
T2C0.0157
; #@! TA.AperFunction,Plated,PTH,ComponentDrill
T3C0.0299
; #@! TA.AperFunction,Plated,PTH,ComponentDrill
T4C0.0394
; #@! TA.AperFunction,Plated,PTH,ComponentDrill
T5C0.1260
%
G90
G05
T1
X4.5512Y-3.2598
X5.1575Y-2.9213
X5.1611Y-3.2562
X5.2189Y-3.3062
X5.2913Y-2.9921
X5.3386Y-3.3307
X5.3386Y-3.7795
X5.3465Y-3.3798
X5.4016Y-2.9134
X5.4094Y-3.1417
X5.4173Y-3.5118
X5.4205Y-3.0756
X5.6496Y-3.122
X5.6772Y-3.1969
X5.8264Y-2.9217
X5.8425Y-2.9921
X5.8583Y-3.3434
X5.8661Y-3.4724
X5.8819Y-3.2913
X5.8898Y-3.5591
X5.9134Y-3.189
X5.9134Y-3.3937
X5.9291Y-3.063
X5.9528Y-3.2362
X6.5433Y-3.3937
T2
X4.8504Y-3.6063
X4.8504Y-3.8976
X4.8583Y-2.9606
X4.8898Y-3.4409
X4.8898Y-3.8346
X4.937Y-3.8087
X5.0866Y-2.9606
X5.1Y-3.6063
X5.2992Y-3.7795
X6.0157Y-2.9606
X6.1811Y-3.1969
X6.1811Y-3.7323
X6.2283Y-2.9606
X6.2283Y-3.2441
X6.2283Y-3.7559
X6.2677Y-3.4409
T3
X4.9843Y-3.1562
X4.9843Y-3.2562
X4.9843Y-3.3562
X4.9843Y-3.4562
X5.0843Y-3.2062
X5.0843Y-3.3062
X5.0843Y-3.4062
X5.0843Y-3.5062
X6.0122Y-3.1434
X6.0122Y-3.2434
X6.0122Y-3.3434
X6.0122Y-3.4434
X6.1122Y-3.1934
X6.1122Y-3.2934
X6.1122Y-3.3934
X6.1122Y-3.4934
T4
X5.1Y-3.9
X5.2Y-2.7953
X5.2Y-3.9
X5.3Y-2.7953
X5.3Y-3.9
X5.4Y-2.7953
X5.4Y-3.9
X5.5Y-2.7953
X5.5Y-3.9
X5.6Y-2.7953
X5.6Y-3.9
X5.7Y-2.7953
X5.7Y-3.9
X5.8Y-3.9
X5.9Y-3.9
X6.0Y-3.9
X6.1Y-3.9
T5
X4.563Y-2.8543
X4.5669Y-3.8386
X6.5354Y-2.8543
X6.5354Y-3.8386
M30
